<svg width="34" height="28" viewBox="0 0 34 28" fill="none" xmlns="http://www.w3.org/2000/svg">
<path d="M0.5 8C0.5 3.58172 4.08172 0 8.5 0H25.5C29.9183 0 33.5 3.58172 33.5 8V20C33.5 24.4183 29.9183 28 25.5 28H8.5C4.08172 28 0.5 24.4183 0.5 20V8Z" fill="url(#paint0_linear_1_1109)"/>
<path d="M8.82884 10.0909L10.6257 13.6847L12.4865 10.0909H15.9879L12.9411 15.5455L16.1016 21H12.6286L10.6257 17.3778L8.67259 21H5.14986L8.31747 15.5455L5.30611 10.0909H8.82884ZM17.5451 21V18.4716L22.8505 13.8267C23.2482 13.4669 23.5868 13.1378 23.8661 12.8395C24.1455 12.5365 24.3585 12.2334 24.5053 11.9304C24.6521 11.6226 24.7255 11.2888 24.7255 10.929C24.7255 10.5265 24.6379 10.1832 24.4627 9.89915C24.2875 9.61032 24.046 9.38778 23.7383 9.23153C23.4305 9.07528 23.0778 8.99716 22.68 8.99716C22.2776 8.99716 21.9248 9.08002 21.6218 9.24574C21.3188 9.40672 21.082 9.6411 20.9116 9.94886C20.7459 10.2566 20.663 10.6307 20.663 11.071H17.332C17.332 10.0814 17.5546 9.2268 17.9996 8.5071C18.4447 7.78741 19.0697 7.23343 19.8746 6.84517C20.6843 6.45218 21.6242 6.25568 22.6942 6.25568C23.7975 6.25568 24.7563 6.44034 25.5707 6.80966C26.3851 7.17898 27.0148 7.69508 27.4599 8.35795C27.9097 9.0161 28.1346 9.78078 28.1346 10.652C28.1346 11.206 28.0233 11.7552 27.8008 12.2997C27.5782 12.8442 27.1781 13.4455 26.6005 14.1037C26.0276 14.7618 25.2132 15.5502 24.1573 16.4688L22.4173 18.0739V18.1662H28.3121V21H17.5451Z" fill="white"/>
<defs>
<linearGradient id="paint0_linear_1_1109" x1="17" y1="0" x2="17" y2="28" gradientUnits="userSpaceOnUse">
<stop stop-color="#365FB3"/>
<stop offset="1" stop-color="#143880"/>
</linearGradient>
</defs>
</svg>
