<svg width="60" height="7" viewBox="0 0 60 7" fill="none" xmlns="http://www.w3.org/2000/svg">
<path d="M1.17911 0.922981V6.55297H0.329666V0.922981H1.17911Z" fill="white" fill-opacity="0.4"/>
<path d="M9.90197 0.922981V6.55297H9.12125L6.25952 2.42395H6.20729V6.55297H5.35784V0.922981H6.14406L9.00854 5.05751H9.06077V0.922981H9.90197Z" fill="white" fill-opacity="0.4"/>
<path d="M15.9054 6.55297H14.0828V0.922981H15.9631C16.5147 0.922981 16.9885 1.03569 17.3843 1.26111C17.7802 1.4847 18.0835 1.80633 18.2943 2.22602C18.5068 2.64387 18.6131 3.1451 18.6131 3.72973C18.6131 4.31619 18.5059 4.82017 18.2915 5.24169C18.0789 5.66321 17.771 5.98759 17.3678 6.21484C16.9646 6.44026 16.4772 6.55297 15.9054 6.55297ZM14.9322 5.81074H15.8586C16.2875 5.81074 16.6439 5.7301 16.928 5.56882C17.2121 5.40571 17.4247 5.17022 17.5658 4.86233C17.7069 4.5526 17.7774 4.17507 17.7774 3.72973C17.7774 3.28805 17.7069 2.91327 17.5658 2.60538C17.4265 2.29749 17.2185 2.06382 16.9417 1.90438C16.665 1.74494 16.3214 1.66522 15.9109 1.66522H14.9322V5.81074Z" fill="white" fill-opacity="0.4"/>
<path d="M26.2316 0.922981H27.0838V4.62591C27.0838 5.01994 26.9912 5.36906 26.8061 5.67329C26.621 5.97568 26.3608 6.21393 26.0254 6.38803C25.69 6.5603 25.2969 6.64644 24.8461 6.64644C24.3971 6.64644 24.0049 6.5603 23.6695 6.38803C23.3341 6.21393 23.0739 5.97568 22.8888 5.67329C22.7037 5.36906 22.6111 5.01994 22.6111 4.62591V0.922981H23.4606V4.55718C23.4606 4.81193 23.5165 5.03826 23.6283 5.23619C23.7419 5.43412 23.9022 5.5899 24.1093 5.70353C24.3164 5.81532 24.562 5.87122 24.8461 5.87122C25.132 5.87122 25.3785 5.81532 25.5856 5.70353C25.7945 5.5899 25.9539 5.43412 26.0639 5.23619C26.1757 5.03826 26.2316 4.81193 26.2316 4.55718V0.922981Z" fill="white" fill-opacity="0.4"/>
<path d="M34.3311 2.40195C34.3018 2.14171 34.1808 1.94012 33.9682 1.79717C33.7556 1.65239 33.4881 1.58 33.1655 1.58C32.9346 1.58 32.7348 1.61665 32.5662 1.68996C32.3976 1.76143 32.2666 1.8604 32.1731 1.98685C32.0815 2.11147 32.0357 2.25351 32.0357 2.41295C32.0357 2.54673 32.0668 2.66219 32.1291 2.75933C32.1933 2.85646 32.2767 2.93801 32.3793 3.00399C32.4838 3.06813 32.5956 3.1222 32.7147 3.16618C32.8338 3.20833 32.9483 3.24315 33.0583 3.27064L33.6081 3.41359C33.7877 3.45758 33.9719 3.51714 34.1607 3.59228C34.3494 3.66742 34.5244 3.76638 34.6857 3.88917C34.847 4.01196 34.9771 4.16407 35.0761 4.34551C35.1769 4.52694 35.2273 4.74412 35.2273 4.99703C35.2273 5.31591 35.1448 5.59906 34.9799 5.84647C34.8168 6.09389 34.5794 6.28907 34.2679 6.43201C33.9581 6.57496 33.5834 6.64644 33.1435 6.64644C32.722 6.64644 32.3573 6.57955 32.0494 6.44576C31.7415 6.31197 31.5005 6.12229 31.3264 5.87671C31.1523 5.6293 31.0561 5.33607 31.0378 4.99703H31.89C31.9065 5.20045 31.9724 5.36998 32.0879 5.5056C32.2052 5.63938 32.3546 5.73926 32.536 5.80524C32.7193 5.86938 32.9199 5.90145 33.138 5.90145C33.3781 5.90145 33.5916 5.86388 33.7785 5.78874C33.9673 5.71177 34.1158 5.60548 34.2239 5.46986C34.332 5.33241 34.3861 5.17205 34.3861 4.98878C34.3861 4.82201 34.3384 4.68547 34.2431 4.57918C34.1497 4.47288 34.0223 4.38491 33.861 4.31527C33.7016 4.24563 33.5211 4.18423 33.3195 4.13109L32.6542 3.94965C32.2034 3.82686 31.846 3.64634 31.5821 3.40809C31.32 3.16985 31.189 2.85462 31.189 2.46243C31.189 2.13805 31.2769 1.8549 31.4529 1.61298C31.6288 1.37107 31.8671 1.18322 32.1676 1.04944C32.4682 0.913817 32.8072 0.846008 33.1848 0.846008C33.566 0.846008 33.9023 0.912901 34.1936 1.04669C34.4869 1.18047 34.7178 1.36466 34.8864 1.59924C35.055 1.83199 35.143 2.09956 35.1503 2.40195H34.3311Z" fill="white" fill-opacity="0.4"/>
<path d="M38.9064 1.65422V0.922981H43.2636V1.65422H41.5069V6.55297H40.6603V1.65422H38.9064Z" fill="white" fill-opacity="0.4"/>
<path d="M47.1681 6.55297V0.922981H49.1749C49.611 0.922981 49.973 0.998121 50.2607 1.1484C50.5503 1.29868 50.7666 1.50669 50.9095 1.77243C51.0524 2.03633 51.1239 2.34147 51.1239 2.68785C51.1239 3.03239 51.0515 3.3357 50.9067 3.59778C50.7638 3.85802 50.5475 4.06053 50.258 4.20531C49.9702 4.35009 49.6083 4.42248 49.1721 4.42248H47.6519V3.69124H49.0951C49.37 3.69124 49.5936 3.65184 49.7659 3.57304C49.94 3.49423 50.0674 3.37969 50.148 3.22941C50.2287 3.07913 50.269 2.89861 50.269 2.68785C50.269 2.47526 50.2277 2.29108 50.1453 2.1353C50.0646 1.97952 49.9373 1.8604 49.7632 1.77793C49.5909 1.69362 49.3645 1.65147 49.0841 1.65147H48.0175V6.55297H47.1681ZM49.9473 4.01288L51.3383 6.55297H50.3707L49.0072 4.01288H49.9473Z" fill="white" fill-opacity="0.4"/>
<path d="M54.4608 0.922981H55.4257L56.8964 3.48232H56.9569L58.4276 0.922981H59.3925L57.35 4.34276V6.55297H56.5033V4.34276L54.4608 0.922981Z" fill="white" fill-opacity="0.4"/>
</svg>
