<svg width="109" height="20" viewBox="0 0 109 20" fill="none" xmlns="http://www.w3.org/2000/svg">
<path d="M0.231179 19V1.54545H7.44141C8.74822 1.54545 9.87607 1.78125 10.8249 2.25284C11.7795 2.71875 12.5153 3.3892 13.0323 4.2642C13.5494 5.13352 13.8079 6.16477 13.8079 7.35795C13.8079 8.56818 13.5437 9.59659 13.0153 10.4432C12.4869 11.2841 11.7369 11.9261 10.7653 12.3693C9.79368 12.8068 8.64311 13.0256 7.31357 13.0256H2.75391V9.7017H6.52947C7.16584 9.7017 7.69709 9.61932 8.12322 9.45455C8.55504 9.28409 8.88175 9.02841 9.10334 8.6875C9.32493 8.34091 9.43572 7.89773 9.43572 7.35795C9.43572 6.81818 9.32493 6.37216 9.10334 6.01989C8.88175 5.66193 8.55504 5.39489 8.12322 5.21875C7.69141 5.03693 7.16016 4.94602 6.52947 4.94602H4.44993V19H0.231179ZM10.0579 11.0227L14.4045 19H9.8022L5.54084 11.0227H10.0579ZM21.9748 19.2472C20.5998 19.2472 19.418 18.9659 18.4293 18.4034C17.4464 17.8352 16.6879 17.0455 16.1538 16.0341C15.6254 15.017 15.3612 13.8381 15.3612 12.4972C15.3612 11.1506 15.6254 9.97159 16.1538 8.96023C16.6879 7.94318 17.4464 7.15341 18.4293 6.59091C19.418 6.02273 20.5998 5.73864 21.9748 5.73864C23.3498 5.73864 24.5288 6.02273 25.5117 6.59091C26.5004 7.15341 27.2589 7.94318 27.7873 8.96023C28.3214 9.97159 28.5884 11.1506 28.5884 12.4972C28.5884 13.8381 28.3214 15.017 27.7873 16.0341C27.2589 17.0455 26.5004 17.8352 25.5117 18.4034C24.5288 18.9659 23.3498 19.2472 21.9748 19.2472ZM22.0004 16.1023C22.5004 16.1023 22.9237 15.9489 23.2702 15.642C23.6168 15.3352 23.881 14.9091 24.0629 14.3636C24.2504 13.8182 24.3441 13.1875 24.3441 12.4716C24.3441 11.7443 24.2504 11.108 24.0629 10.5625C23.881 10.017 23.6168 9.59091 23.2702 9.28409C22.9237 8.97727 22.5004 8.82386 22.0004 8.82386C21.4833 8.82386 21.0458 8.97727 20.6879 9.28409C20.3356 9.59091 20.0657 10.017 19.8782 10.5625C19.6964 11.108 19.6055 11.7443 19.6055 12.4716C19.6055 13.1875 19.6964 13.8182 19.8782 14.3636C20.0657 14.9091 20.3356 15.3352 20.6879 15.642C21.0458 15.9489 21.4833 16.1023 22.0004 16.1023ZM34.891 1.54545V19H30.7234V1.54545H34.891ZM41.7113 1.54545V19H37.5437V1.54545H41.7113ZM65.364 7.86932H61.1026C61.0458 7.43182 60.9293 7.03693 60.7532 6.68466C60.5771 6.33239 60.3441 6.03125 60.0543 5.78125C59.7646 5.53125 59.4208 5.34091 59.0231 5.21023C58.631 5.07386 58.1964 5.00568 57.7191 5.00568C56.8725 5.00568 56.1424 5.21307 55.5288 5.62784C54.9208 6.04261 54.4521 6.64205 54.1225 7.42614C53.7987 8.21023 53.6367 9.15909 53.6367 10.2727C53.6367 11.4318 53.8015 12.4034 54.131 13.1875C54.4663 13.9659 54.935 14.554 55.5373 14.9517C56.1452 15.3437 56.864 15.5398 57.6935 15.5398C58.1594 15.5398 58.5827 15.4801 58.9634 15.3608C59.3498 15.2415 59.6879 15.0682 59.9776 14.8409C60.2731 14.608 60.5146 14.3267 60.7021 13.9972C60.8952 13.6619 61.0288 13.2841 61.1026 12.8636L65.364 12.8892C65.2901 13.6619 65.0657 14.4233 64.6907 15.1733C64.3214 15.9233 63.8129 16.608 63.1651 17.2273C62.5174 17.8409 61.7276 18.3295 60.7958 18.6932C59.8697 19.0568 58.8072 19.2386 57.6083 19.2386C56.0288 19.2386 54.614 18.892 53.364 18.1989C52.1197 17.5 51.1367 16.483 50.4151 15.1477C49.6935 13.8125 49.3327 12.1875 49.3327 10.2727C49.3327 8.35227 49.6992 6.72443 50.4322 5.3892C51.1651 4.05398 52.1566 3.03977 53.4066 2.34659C54.6566 1.65341 56.0572 1.30682 57.6083 1.30682C58.6651 1.30682 59.6424 1.45455 60.5401 1.75C61.4379 2.03977 62.2276 2.46591 62.9094 3.02841C63.5913 3.58523 64.1452 4.26989 64.5714 5.08239C64.9975 5.89489 65.2617 6.82386 65.364 7.86932ZM67.7781 19V5.90909H71.8263V8.29545H71.9627C72.2013 7.43182 72.5906 6.78977 73.1303 6.36932C73.6701 5.94318 74.2979 5.73011 75.0138 5.73011C75.207 5.73011 75.4059 5.74432 75.6104 5.77273C75.815 5.79545 76.0053 5.83239 76.1815 5.88352V9.50568C75.9826 9.4375 75.7212 9.38352 75.3974 9.34375C75.0792 9.30398 74.7951 9.28409 74.5451 9.28409C74.0508 9.28409 73.6048 9.39489 73.207 9.61648C72.815 9.83239 72.5053 10.1364 72.2781 10.5284C72.0565 10.9148 71.9457 11.3693 71.9457 11.892V19H67.7781ZM81.0778 19.2216C80.2425 19.2216 79.5011 19.0824 78.8533 18.804C78.2113 18.5199 77.7028 18.0937 77.3278 17.5256C76.9585 16.9517 76.7738 16.233 76.7738 15.3693C76.7738 14.642 76.9016 14.0284 77.1573 13.5284C77.413 13.0284 77.7653 12.6222 78.2141 12.3097C78.663 11.9972 79.18 11.7614 79.7653 11.6023C80.3505 11.4375 80.9755 11.3267 81.6403 11.2699C82.3846 11.2017 82.984 11.1307 83.4386 11.0568C83.8931 10.9773 84.2227 10.8665 84.4272 10.7244C84.6374 10.5767 84.7425 10.3693 84.7425 10.1023V10.0597C84.7425 9.62216 84.592 9.28409 84.2908 9.04545C83.9897 8.80682 83.5835 8.6875 83.0721 8.6875C82.521 8.6875 82.0778 8.80682 81.7425 9.04545C81.4073 9.28409 81.1942 9.61364 81.1033 10.0341L77.2596 9.89773C77.3732 9.10227 77.6658 8.39205 78.1374 7.76705C78.6147 7.13636 79.2681 6.64205 80.0977 6.28409C80.9329 5.92045 81.9357 5.73864 83.1062 5.73864C83.9414 5.73864 84.7113 5.83807 85.4158 6.03693C86.1204 6.23011 86.734 6.5142 87.2567 6.8892C87.7795 7.25852 88.1829 7.71307 88.467 8.25284C88.7567 8.79261 88.9016 9.40909 88.9016 10.1023V19H84.9812V17.1761H84.8789C84.646 17.6193 84.3477 17.9943 83.984 18.3011C83.6261 18.608 83.2028 18.8381 82.7141 18.9915C82.2312 19.1449 81.6857 19.2216 81.0778 19.2216ZM82.3647 16.4943C82.8136 16.4943 83.217 16.4034 83.5749 16.2216C83.9386 16.0398 84.2283 15.7898 84.4442 15.4716C84.6602 15.1477 84.7681 14.7727 84.7681 14.3466V13.1023C84.6488 13.1648 84.5039 13.2216 84.3335 13.2727C84.1687 13.3239 83.9869 13.3722 83.788 13.4176C83.5891 13.4631 83.3846 13.5028 83.1744 13.5369C82.9641 13.571 82.7624 13.6023 82.5692 13.6307C82.1772 13.6932 81.842 13.7898 81.5636 13.9205C81.2908 14.0511 81.0806 14.2216 80.9329 14.4318C80.7908 14.6364 80.7198 14.8807 80.7198 15.1648C80.7198 15.5966 80.8732 15.9261 81.18 16.1534C81.4925 16.3807 81.8874 16.4943 82.3647 16.4943ZM98.8903 5.90909V8.97727H90.4698V5.90909H98.8903ZM92.2255 19V5.24432C92.2255 4.23295 92.4158 3.39489 92.7965 2.73011C93.1772 2.05966 93.7056 1.55966 94.3817 1.23011C95.0579 0.894886 95.8391 0.727272 96.7255 0.727272C97.305 0.727272 97.8505 0.772727 98.3619 0.863636C98.8789 0.948864 99.2624 1.02557 99.5124 1.09375L98.8477 4.14489C98.6942 4.09375 98.5067 4.05114 98.2852 4.01704C98.0692 3.98295 97.8647 3.96591 97.6715 3.96591C97.1829 3.96591 96.8477 4.07386 96.6658 4.28977C96.484 4.50568 96.3931 4.80114 96.3931 5.17614V19H92.2255ZM108.284 5.90909V8.97727H100.026V5.90909H108.284ZM101.756 2.77273H105.924V14.8835C105.924 15.1392 105.963 15.3466 106.043 15.5057C106.128 15.6591 106.25 15.7699 106.409 15.8381C106.569 15.9006 106.759 15.9318 106.98 15.9318C107.14 15.9318 107.307 15.9176 107.483 15.8892C107.665 15.8551 107.801 15.8267 107.892 15.804L108.523 18.8125C108.324 18.8693 108.043 18.9403 107.679 19.0256C107.321 19.1108 106.892 19.1648 106.392 19.1875C105.415 19.233 104.577 19.1193 103.878 18.8466C103.185 18.5682 102.654 18.1364 102.284 17.5511C101.921 16.9659 101.745 16.2301 101.756 15.3438V2.77273Z" fill="white"/>
</svg>
