<svg width="86" height="62" viewBox="0 0 86 62" fill="none" xmlns="http://www.w3.org/2000/svg">
<path d="M41.9363 11.7031C42.6973 11.4001 43.5402 11.3812 44.3113 11.6464L44.4647 11.7031L44.4656 11.704L55.1297 15.9697H55.1307C55.7636 16.2218 56.3077 16.6576 56.6912 17.2206C57.0747 17.7838 57.2812 18.4495 57.284 19.1308V34.6669C57.2839 35.573 56.9237 36.4423 56.283 37.0829C55.6423 37.7236 54.773 38.0839 53.867 38.0839H32.534C31.6281 38.0839 30.7587 37.7234 30.118 37.0829C29.4773 36.4423 29.1171 35.573 29.117 34.6669V19.1308L29.1277 18.8759C29.1743 18.2845 29.3742 17.7134 29.7098 17.2206C30.0933 16.6576 30.6364 16.2217 31.2693 15.9697L41.9354 11.704L41.9363 11.7031ZM43.908 13.0956C43.4532 12.915 42.9457 12.9147 42.491 13.0956L42.492 13.0966L31.826 17.3632H31.824C31.469 17.5047 31.1641 17.7495 30.949 18.0654C30.734 18.3812 30.6185 18.7545 30.617 19.1367V34.6669C30.6171 35.1751 30.8192 35.663 31.1785 36.0224C31.5379 36.3816 32.0259 36.5839 32.534 36.5839H34.45V21.3329C34.4502 20.9189 34.7859 20.5829 35.2 20.5829H51.2C51.6141 20.5829 51.9499 20.9189 51.95 21.3329V36.5839H53.867C54.3752 36.5839 54.8631 36.3817 55.2225 36.0224C55.5818 35.663 55.7839 35.1751 55.784 34.6669V19.1367L55.7781 18.9941C55.7521 18.6622 55.6392 18.3419 55.451 18.0654C55.2359 17.7495 54.931 17.5047 54.576 17.3632H54.575L43.908 13.0966V13.0956ZM35.95 32.7499V36.5829H50.45V32.7499H35.95ZM35.95 27.4169V31.2499H50.45V27.4169H35.95ZM35.95 25.9169H50.45V22.0829H35.95V25.9169Z" fill="white" fill-opacity="0.4"/>
<path d="M34.284 47.6378C34.2461 47.3016 34.0899 47.0412 33.8152 46.8565C33.5406 46.6695 33.195 46.576 32.7783 46.576C32.48 46.576 32.222 46.6233 32.0042 46.718C31.7864 46.8104 31.6171 46.9382 31.4964 47.1016C31.378 47.2625 31.3188 47.446 31.3188 47.652C31.3188 47.8248 31.359 47.974 31.4395 48.0994C31.5224 48.2249 31.6301 48.3303 31.7627 48.4155C31.8976 48.4983 32.042 48.5682 32.1959 48.625C32.3498 48.6795 32.4978 48.7244 32.6398 48.7599L33.35 48.9446C33.5821 49.0014 33.82 49.0784 34.0638 49.1754C34.3077 49.2725 34.5338 49.4003 34.7421 49.5589C34.9504 49.7176 35.1185 49.9141 35.2464 50.1484C35.3766 50.3828 35.4417 50.6634 35.4417 50.9901C35.4417 51.402 35.3351 51.7678 35.1221 52.0874C34.9114 52.407 34.6048 52.6591 34.2023 52.8438C33.8022 53.0284 33.3181 53.1207 32.7499 53.1207C32.2054 53.1207 31.7343 53.0343 31.3366 52.8615C30.9388 52.6887 30.6275 52.4437 30.4026 52.1264C30.1777 51.8068 30.0534 51.428 30.0297 50.9901H31.1306C31.1519 51.2528 31.2371 51.4718 31.3863 51.647C31.5378 51.8198 31.7307 51.9489 31.9651 52.0341C32.2018 52.117 32.4611 52.1584 32.7428 52.1584C33.0529 52.1584 33.3287 52.1098 33.5702 52.0128C33.8141 51.9134 34.0058 51.776 34.1455 51.6009C34.2852 51.4233 34.355 51.2161 34.355 50.9794C34.355 50.764 34.2935 50.5876 34.1704 50.4503C34.0496 50.313 33.8851 50.1993 33.6768 50.1094C33.4708 50.0194 33.2376 49.9401 32.9772 49.8714L32.1178 49.6371C31.5354 49.4785 31.0738 49.2453 30.7329 48.9375C30.3943 48.6297 30.225 48.2225 30.225 47.7159C30.225 47.2969 30.3387 46.9311 30.566 46.6186C30.7932 46.3061 31.101 46.0634 31.4893 45.8906C31.8775 45.7154 32.3155 45.6278 32.8032 45.6278C33.2956 45.6278 33.73 45.7143 34.1064 45.8871C34.4852 46.0599 34.7835 46.2978 35.0013 46.6009C35.2191 46.9015 35.3328 47.2472 35.3422 47.6378H34.284ZM39.2139 47.5455V48.3977H36.2345V47.5455H39.2139ZM37.0335 46.2386H38.0953V51.3984C38.0953 51.6044 38.126 51.7595 38.1876 51.8636C38.2491 51.9654 38.3284 52.0353 38.4255 52.0732C38.5249 52.1087 38.6327 52.1264 38.7487 52.1264C38.8339 52.1264 38.9085 52.1205 38.9724 52.1087C39.0363 52.0968 39.086 52.0874 39.1215 52.0803L39.3133 52.9574C39.2517 52.9811 39.1641 53.0047 39.0505 53.0284C38.9369 53.0545 38.7948 53.0687 38.6244 53.071C38.345 53.0758 38.0846 53.026 37.8431 52.9219C37.6016 52.8177 37.4063 52.6567 37.2572 52.4389C37.108 52.2211 37.0335 51.9477 37.0335 51.6186V46.2386ZM42.6274 53.1101C42.116 53.1101 41.6698 52.9929 41.2886 52.7585C40.9075 52.5241 40.6115 52.1963 40.4008 51.7749C40.1901 51.3535 40.0848 50.861 40.0848 50.2976C40.0848 49.7318 40.1901 49.237 40.4008 48.8132C40.6115 48.3894 40.9075 48.0604 41.2886 47.826C41.6698 47.5916 42.116 47.4744 42.6274 47.4744C43.1388 47.4744 43.585 47.5916 43.9662 47.826C44.3473 48.0604 44.6433 48.3894 44.854 48.8132C45.0647 49.237 45.17 49.7318 45.17 50.2976C45.17 50.861 45.0647 51.3535 44.854 51.7749C44.6433 52.1963 44.3473 52.5241 43.9662 52.7585C43.585 52.9929 43.1388 53.1101 42.6274 53.1101ZM42.6309 52.2188C42.9624 52.2188 43.237 52.1312 43.4548 51.956C43.6726 51.7808 43.8336 51.5476 43.9378 51.2564C44.0443 50.9652 44.0976 50.6444 44.0976 50.294C44.0976 49.946 44.0443 49.6264 43.9378 49.3352C43.8336 49.0417 43.6726 48.8061 43.4548 48.6286C43.237 48.451 42.9624 48.3622 42.6309 48.3622C42.2971 48.3622 42.0201 48.451 41.8 48.6286C41.5822 48.8061 41.42 49.0417 41.3135 49.3352C41.2093 49.6264 41.1572 49.946 41.1572 50.294C41.1572 50.6444 41.2093 50.9652 41.3135 51.2564C41.42 51.5476 41.5822 51.7808 41.8 51.956C42.0201 52.1312 42.2971 52.2188 42.6309 52.2188ZM48.6528 53.1101C48.1248 53.1101 47.6703 52.9905 47.2891 52.7514C46.9104 52.5099 46.6192 52.1773 46.4156 51.7536C46.212 51.3298 46.1102 50.8445 46.1102 50.2976C46.1102 49.7436 46.2143 49.2547 46.4227 48.831C46.631 48.4048 46.9246 48.0722 47.3034 47.8331C47.6821 47.594 48.1284 47.4744 48.6421 47.4744C49.0564 47.4744 49.4257 47.5514 49.7501 47.7053C50.0744 47.8568 50.336 48.0698 50.5349 48.3445C50.7361 48.6191 50.8557 48.9399 50.8935 49.3068H49.8602C49.8034 49.0511 49.6731 48.831 49.4695 48.6463C49.2683 48.4616 48.9984 48.3693 48.6599 48.3693C48.364 48.3693 48.1047 48.4474 47.8822 48.6037C47.662 48.7576 47.4904 48.9777 47.3673 49.2642C47.2442 49.5483 47.1826 49.8845 47.1826 50.2727C47.1826 50.6705 47.243 51.0137 47.3637 51.3026C47.4845 51.5914 47.6549 51.8151 47.8751 51.9737C48.0976 52.1323 48.3592 52.2116 48.6599 52.2116C48.8611 52.2116 49.0434 52.175 49.2068 52.1016C49.3725 52.0258 49.511 51.9181 49.6222 51.7784C49.7359 51.6387 49.8152 51.4706 49.8602 51.2741H50.8935C50.8557 51.6269 50.7409 51.9418 50.5491 52.2188C50.3573 52.4957 50.1005 52.7135 49.7785 52.8722C49.4589 53.0308 49.0837 53.1101 48.6528 53.1101ZM53.0056 51.1499L52.9985 49.8537H53.1831L55.3564 47.5455H56.6277L54.1491 50.1733H53.9822L53.0056 51.1499ZM52.029 53V45.7273H53.0908V53H52.029ZM55.4736 53L53.5205 50.4077L54.252 49.6655L56.7769 53H55.4736Z" fill="white" fill-opacity="0.4"/>
</svg>
