<svg width="33" height="32" viewBox="0 0 33 32" fill="none" xmlns="http://www.w3.org/2000/svg">
<g clip-path="url(#clip0_1_1121)">
<path d="M28.8744 10.9056L22.0944 4.12557C22.0141 4.04519 21.9051 4.00002 21.7914 4H12.2086C12.0949 4.00002 11.9859 4.04519 11.9056 4.12557L5.12557 10.9056C5.04519 10.9859 5.00002 11.0949 5 11.2086V20.7914C5.00002 20.9051 5.04519 21.0141 5.12557 21.0944L11.9056 27.8744C11.9859 27.9548 12.0949 28 12.2086 28H21.7914C21.9051 28 22.0141 27.9548 22.0944 27.8744L28.8744 21.0944C28.9548 21.0141 29 20.9051 29 20.7914V11.2086C29 11.0949 28.9548 10.9859 28.8744 10.9056Z" fill="#FF5858"/>
<path d="M21.4366 27.1428H12.5634C12.4498 27.1428 12.3408 27.0976 12.2604 27.0173L5.98272 20.7395C5.90234 20.6592 5.85717 20.5502 5.85715 20.4365V11.5634C5.85717 11.4497 5.90234 11.3408 5.98272 11.2604L12.2604 4.98269C12.3408 4.90231 12.4498 4.85714 12.5634 4.85712H21.4366C21.5502 4.85714 21.6592 4.90231 21.7396 4.98269L28.0173 11.2604C28.0977 11.3408 28.1428 11.4497 28.1429 11.5634V20.4365C28.1428 20.5502 28.0977 20.6592 28.0173 20.7395L21.7396 27.0173C21.6592 27.0976 21.5502 27.1428 21.4366 27.1428ZM12.7409 26.2857H21.2587L27.2857 20.2587V11.7417L21.2587 5.71426H12.7417L6.71429 11.7413V20.2591L12.7409 26.2857Z" fill="#FAFAFA"/>
<path d="M9.71429 19C9.2598 18.9994 8.8241 18.8186 8.50273 18.4973C8.18136 18.1759 8.00057 17.7402 8 17.2857C8 17.1721 8.04515 17.063 8.12553 16.9827C8.2059 16.9023 8.31491 16.8571 8.42857 16.8571C8.54224 16.8571 8.65125 16.9023 8.73162 16.9827C8.81199 17.063 8.85714 17.1721 8.85714 17.2857C8.85714 17.4552 8.90741 17.621 9.0016 17.7619C9.09578 17.9029 9.22965 18.0127 9.38627 18.0776C9.54289 18.1425 9.71524 18.1595 9.88151 18.1264C10.0478 18.0933 10.2005 18.0117 10.3204 17.8918C10.4403 17.7719 10.5219 17.6192 10.555 17.4529C10.588 17.2867 10.5711 17.1143 10.5062 16.9577C10.4413 16.8011 10.3314 16.6672 10.1905 16.573C10.0495 16.4788 9.88381 16.4286 9.71429 16.4286C9.37523 16.4286 9.04379 16.328 8.76188 16.1397C8.47997 15.9513 8.26024 15.6836 8.13049 15.3703C8.00074 15.0571 7.96679 14.7124 8.03294 14.3798C8.09909 14.0473 8.26236 13.7419 8.5021 13.5021C8.74185 13.2624 9.04731 13.0991 9.37985 13.0329C9.71239 12.9668 10.0571 13.0007 10.3703 13.1305C10.6836 13.2602 10.9513 13.48 11.1397 13.7619C11.328 14.0438 11.4286 14.3752 11.4286 14.7143C11.4286 14.828 11.3834 14.937 11.303 15.0173C11.2227 15.0977 11.1137 15.1429 11 15.1429C10.8863 15.1429 10.7773 15.0977 10.697 15.0173C10.6166 14.937 10.5714 14.828 10.5714 14.7143C10.5714 14.5448 10.5212 14.379 10.427 14.2381C10.3328 14.0971 10.1989 13.9873 10.0423 13.9224C9.88568 13.8575 9.71334 13.8405 9.54707 13.8736C9.3808 13.9067 9.22807 13.9883 9.1082 14.1082C8.98832 14.2281 8.90669 14.3808 8.87361 14.5471C8.84054 14.7133 8.85751 14.8857 8.92239 15.0423C8.98726 15.1989 9.09713 15.3328 9.23808 15.427C9.37904 15.5212 9.54476 15.5714 9.71429 15.5714C10.1689 15.5714 10.605 15.752 10.9265 16.0735C11.248 16.395 11.4286 16.8311 11.4286 17.2857C11.4286 17.7404 11.248 18.1764 10.9265 18.4979C10.605 18.8194 10.1689 19 9.71429 19ZM16.1429 13H12.7143C12.6006 13 12.4916 13.0452 12.4112 13.1255C12.3309 13.2059 12.2857 13.3149 12.2857 13.4286C12.2857 13.5422 12.3309 13.6512 12.4112 13.7316C12.4916 13.812 12.6006 13.8571 12.7143 13.8571H14V18.5714C14 18.6851 14.0452 18.7941 14.1255 18.8745C14.2059 18.9548 14.3149 19 14.4286 19C14.5422 19 14.6512 18.9548 14.7316 18.8745C14.812 18.7941 14.8571 18.6851 14.8571 18.5714V13.8571H16.1429C16.2565 13.8571 16.3655 13.812 16.4459 13.7316C16.5263 13.6512 16.5714 13.5422 16.5714 13.4286C16.5714 13.3149 16.5263 13.2059 16.4459 13.1255C16.3655 13.0452 16.2565 13 16.1429 13ZM19.1429 19C18.6883 18.9995 18.2526 18.8188 17.9312 18.4974C17.6098 18.176 17.429 17.7402 17.4286 17.2857V14.7143C17.4286 14.2596 17.6092 13.8236 17.9307 13.5021C18.2522 13.1806 18.6882 13 19.1429 13C19.5975 13 20.0336 13.1806 20.355 13.5021C20.6765 13.8236 20.8571 14.2596 20.8571 14.7143V17.2857C20.8567 17.7402 20.6759 18.176 20.3545 18.4974C20.0331 18.8188 19.5974 18.9995 19.1429 19ZM19.1429 13.8571C18.9155 13.8571 18.6975 13.9474 18.5368 14.1082C18.376 14.2689 18.2857 14.487 18.2857 14.7143V17.2857C18.2857 17.513 18.376 17.7311 18.5368 17.8918C18.6975 18.0526 18.9155 18.1429 19.1429 18.1429C19.3702 18.1429 19.5882 18.0526 19.749 17.8918C19.9097 17.7311 20 17.513 20 17.2857V14.7143C20 14.487 19.9097 14.2689 19.749 14.1082C19.5882 13.9474 19.3702 13.8571 19.1429 13.8571ZM22.5714 19C22.4578 19 22.3488 18.9548 22.2684 18.8745C22.188 18.7941 22.1429 18.6851 22.1429 18.5714V13.4286C22.1429 13.3149 22.188 13.2059 22.2684 13.1255C22.3488 13.0452 22.4578 13 22.5714 13H24.2857C24.7404 13 25.1764 13.1806 25.4979 13.5021C25.8194 13.8236 26 14.2596 26 14.7143C26 15.1689 25.8194 15.605 25.4979 15.9265C25.1764 16.248 24.7404 16.4286 24.2857 16.4286H23V18.5714C23 18.6851 22.9548 18.7941 22.8745 18.8745C22.7941 18.9548 22.6851 19 22.5714 19ZM23 15.5714H24.2857C24.513 15.5714 24.7311 15.4811 24.8918 15.3204C25.0526 15.1596 25.1429 14.9416 25.1429 14.7143C25.1429 14.487 25.0526 14.2689 24.8918 14.1082C24.7311 13.9474 24.513 13.8571 24.2857 13.8571H23V15.5714Z" fill="#FAFAFA"/>
</g>
<defs>
<clipPath id="clip0_1_1121">
<rect width="24" height="24" fill="white" transform="translate(5 4)"/>
</clipPath>
</defs>
</svg>
