<svg width="35" height="13" viewBox="0 0 35 13" fill="none" xmlns="http://www.w3.org/2000/svg">
<path d="M5.30859 0.0627747C5.95052 0.0627747 6.55924 0.181753 7.13477 0.419708C7.71029 0.65213 8.2194 1.01736 8.66211 1.51541C9.11035 2.00792 9.46175 2.64155 9.71631 3.41629C9.97087 4.1855 10.0981 5.11242 10.0981 6.19705V6.21365C10.0981 7.55838 9.90446 8.70942 9.51709 9.66678C9.12972 10.6241 8.57357 11.3601 7.84863 11.8748C7.12923 12.3839 6.26872 12.6385 5.26709 12.6385C4.53109 12.6385 3.86702 12.5056 3.2749 12.24C2.68831 11.9689 2.20133 11.5981 1.81396 11.1277C1.43213 10.6518 1.1748 10.1095 1.04199 9.50076L1.02539 9.40945H3.12549L3.15869 9.49246C3.26383 9.76915 3.41325 10.0126 3.60693 10.2229C3.80615 10.4332 4.04411 10.5965 4.3208 10.7127C4.60303 10.8234 4.91846 10.8787 5.26709 10.8787C5.89795 10.8787 6.4126 10.6933 6.81104 10.3225C7.21501 9.94624 7.5166 9.44542 7.71582 8.8201C7.92057 8.18924 8.03678 7.49197 8.06445 6.7283C8.06999 6.64529 8.07275 6.56505 8.07275 6.48758C8.07275 6.40457 8.07275 6.32433 8.07275 6.24686L7.69922 4.24637C7.69922 3.79259 7.59408 3.38032 7.38379 3.00955C7.1735 2.63878 6.88851 2.34549 6.52881 2.12967C6.17464 1.91385 5.77344 1.80594 5.3252 1.80594C4.89355 1.80594 4.49788 1.91108 4.13818 2.12137C3.77848 2.33165 3.49072 2.61942 3.2749 2.98465C3.05908 3.34435 2.95117 3.74832 2.95117 4.19656V4.21317C2.95117 4.67801 3.05355 5.09028 3.2583 5.44998C3.46305 5.80415 3.74251 6.08361 4.09668 6.28836C4.45085 6.49311 4.85482 6.59549 5.30859 6.59549C5.76237 6.59549 6.16911 6.49588 6.52881 6.29666C6.88851 6.09744 7.1735 5.82075 7.38379 5.46658C7.59408 5.11242 7.69922 4.71121 7.69922 4.26297V4.24637H8.19727V6.45438H7.90674C7.76286 6.76981 7.5498 7.0631 7.26758 7.33426C6.98535 7.60542 6.63672 7.82401 6.22168 7.99002C5.81217 8.15604 5.33073 8.23904 4.77734 8.23904C4.01367 8.23904 3.33854 8.06749 2.75195 7.7244C2.16536 7.3813 1.70329 6.91092 1.36572 6.31326C1.03369 5.71561 0.867676 5.04048 0.867676 4.28787V4.27127C0.867676 3.45779 1.05583 2.73563 1.43213 2.10477C1.81396 1.46837 2.33968 0.970327 3.00928 0.610626C3.68441 0.245392 4.45085 0.0627747 5.30859 0.0627747ZM13.8667 10.7293C13.4904 10.7293 13.175 10.6048 12.9204 10.3557C12.6714 10.1012 12.5469 9.79129 12.5469 9.42606C12.5469 9.05529 12.6714 8.74539 12.9204 8.49637C13.175 8.24181 13.4904 8.11453 13.8667 8.11453C14.2485 8.11453 14.564 8.24181 14.813 8.49637C15.062 8.74539 15.1865 9.05529 15.1865 9.42606C15.1865 9.79129 15.062 10.1012 14.813 10.3557C14.564 10.6048 14.2485 10.7293 13.8667 10.7293ZM13.8667 4.5701C13.4904 4.5701 13.175 4.44559 12.9204 4.19656C12.6714 3.94201 12.5469 3.63211 12.5469 3.26688C12.5469 2.89611 12.6714 2.58621 12.9204 2.33719C13.175 2.08263 13.4904 1.95535 13.8667 1.95535C14.2485 1.95535 14.564 2.08263 14.813 2.33719C15.062 2.58621 15.1865 2.89611 15.1865 3.26688C15.1865 3.63211 15.062 3.94201 14.813 4.19656C14.564 4.44559 14.2485 4.5701 13.8667 4.5701ZM23.4458 12.3396V10.0403H17.5854V8.28885C17.9009 7.75207 18.2163 7.21251 18.5317 6.6702C18.8527 6.12788 19.1764 5.58833 19.5029 5.05154C19.835 4.50923 20.1642 3.97521 20.4907 3.44949C20.8228 2.91824 21.152 2.39529 21.4785 1.88065C21.8105 1.36046 22.1426 0.854116 22.4746 0.361603H25.4878V8.27225H27.1064V10.0403H25.4878V12.3396H23.4458ZM19.5776 8.32205H23.479V2.07156H23.3545C23.111 2.44787 22.8592 2.83524 22.5991 3.23367C22.3446 3.63211 22.0872 4.03885 21.8271 4.45389C21.5671 4.86893 21.3097 5.28673 21.0552 5.70731C20.8006 6.12234 20.5488 6.54015 20.2998 6.96072C20.0508 7.37576 19.8101 7.78804 19.5776 8.19754V8.32205ZM32.062 12.3396V2.47H31.9126L28.9326 4.5701V2.56131L32.062 0.361603H34.1953V12.3396H32.062Z" fill="white"/>
</svg>
