<svg width="62" height="36" viewBox="0 0 62 36" fill="none" xmlns="http://www.w3.org/2000/svg">
<path d="M40.2469 8.47239L49.1336 8.56125L42.4686 15.2273L45.8455 24.5583L37.7586 20.6482L25.328 29.0905L30.116 17.0935L16.7078 8.56125L33.7596 8.47239L36.7811 0.563206L40.2469 8.47239ZM35.5369 11.9392L30.2049 12.2947L34.3817 15.0495L32.5155 20.2038L36.8699 17.0046L40.6912 18.8708L39.0916 14.6052L42.0242 11.5837L38.1141 11.7614L36.8699 8.38352L35.5369 11.9392Z" fill="#82E024"/>
<g filter="url(#filter0_f_1_2153)">
<path d="M28.9602 12.3831L29.4935 9.27258L23.1836 10.339L22.4727 12.0276L23.9835 13.1829L24.0723 12.2942L28.9602 12.3831Z" fill="#181A20"/>
</g>
<path d="M10.0535 13.5188C10.1005 13.0013 9.97509 12.5962 9.67714 12.3035C9.3792 12.0056 8.8774 11.8566 8.17174 11.8566C7.72221 11.8566 7.34586 11.9089 7.04269 12.0134C6.74475 12.118 6.51214 12.2617 6.34487 12.4447C6.18283 12.6276 6.08091 12.8393 6.03909 13.0797C5.99204 13.2679 5.99466 13.4404 6.04693 13.5972C6.10443 13.7488 6.21158 13.8873 6.3684 14.0128C6.53044 14.1382 6.74213 14.2506 7.00349 14.3499C7.27007 14.4492 7.58631 14.5381 7.9522 14.6165L9.2067 14.8988C10.0639 15.0869 10.7827 15.3352 11.3629 15.6436C11.9483 15.9468 12.4083 16.3075 12.7428 16.7256C13.0774 17.1438 13.2969 17.6116 13.4014 18.1291C13.5112 18.6466 13.5138 19.2111 13.4093 19.8227C13.2316 20.8786 12.8212 21.7724 12.1783 22.5042C11.5354 23.236 10.6964 23.7927 9.66146 24.1742C8.6265 24.5558 7.42949 24.7466 6.07045 24.7466C4.68005 24.7466 3.49872 24.5401 2.52648 24.1272C1.55947 23.709 0.859044 23.0713 0.425195 22.2141C-0.00342613 21.3516 -0.107968 20.2513 0.11157 18.9132H4.25142C4.1887 19.4045 4.24097 19.8175 4.40824 20.152C4.5755 20.4865 4.8447 20.74 5.21582 20.9125C5.58695 21.085 6.04954 21.1713 6.60361 21.1713C7.07405 21.1713 7.47654 21.1138 7.81107 20.9988C8.14561 20.8838 8.40957 20.7244 8.60298 20.5205C8.79638 20.3166 8.91399 20.084 8.9558 19.8227C8.99762 19.5822 8.9558 19.3679 8.83035 19.1798C8.7049 18.9916 8.47753 18.8217 8.14822 18.6701C7.81891 18.5185 7.36677 18.38 6.79179 18.2546L5.25503 17.9096C3.89076 17.5959 2.86102 17.0785 2.16582 16.3571C1.47061 15.6358 1.22494 14.6479 1.4288 13.3934C1.59606 12.3689 2.01684 11.475 2.69114 10.7119C3.37066 9.94349 4.23313 9.3476 5.27855 8.9242C6.32919 8.49558 7.49222 8.28127 8.76763 8.28127C10.0639 8.28127 11.1486 8.4982 12.0215 8.93205C12.8996 9.36589 13.5295 9.97485 13.9111 10.7589C14.2979 11.543 14.4024 12.4629 14.2247 13.5188H10.0535Z" fill="url(#paint0_linear_1_2153)"/>
<path d="M14.8104 12.0134L15.4063 8.50081H29.3626L28.7667 12.0134H23.9369L21.867 24.5584H17.5703L19.6402 12.0134H14.8104Z" fill="url(#paint1_linear_1_2153)"/>
<path d="M46.7633 24.5584L49.4291 8.50081H56.3602C57.552 8.50081 58.5582 8.71774 59.3788 9.15158C60.1995 9.58543 60.7902 10.2101 61.1508 11.0255C61.5115 11.8409 61.5977 12.8184 61.4096 13.9579C61.2214 15.1079 60.8058 16.0775 60.1629 16.8668C59.5252 17.6508 58.7124 18.2467 57.7245 18.6544C56.7418 19.0569 55.6389 19.2582 54.4157 19.2582H50.2759L50.8404 15.871H54.1021C54.6143 15.871 55.0639 15.8083 55.4507 15.6828C55.8375 15.5522 56.1511 15.3483 56.3916 15.0713C56.632 14.789 56.7888 14.4179 56.862 13.9579C56.9352 13.4979 56.8986 13.1242 56.7522 12.8367C56.6059 12.544 56.3628 12.3297 56.0231 12.1937C55.6833 12.0526 55.2625 11.9821 54.7607 11.9821H53.2239L51.1227 24.5584H46.7633ZM57.3952 17.1882L60.1864 24.5584H55.4507L52.7535 17.1882H57.3952Z" fill="url(#paint2_linear_1_2153)"/>
<path d="M2.17911 29.923V35.553H1.32967V29.923H2.17911Z" fill="white" fill-opacity="0.4"/>
<path d="M10.902 29.923V35.553H10.1212L7.25952 31.4239H7.20729V35.553H6.35784V29.923H7.14406L10.0085 34.0575H10.0608V29.923H10.902Z" fill="white" fill-opacity="0.4"/>
<path d="M16.9054 35.553H15.0828V29.923H16.9631C17.5147 29.923 17.9885 30.0357 18.3843 30.2611C18.7802 30.4847 19.0835 30.8063 19.2943 31.226C19.5068 31.6439 19.6131 32.1451 19.6131 32.7297C19.6131 33.3162 19.5059 33.8202 19.2915 34.2417C19.0789 34.6632 18.771 34.9876 18.3678 35.2148C17.9646 35.4403 17.4772 35.553 16.9054 35.553ZM15.9322 34.8107H16.8586C17.2875 34.8107 17.6439 34.7301 17.928 34.5688C18.2121 34.4057 18.4247 34.1702 18.5658 33.8623C18.7069 33.5526 18.7774 33.1751 18.7774 32.7297C18.7774 32.2881 18.7069 31.9133 18.5658 31.6054C18.4265 31.2975 18.2185 31.0638 17.9417 30.9044C17.665 30.7449 17.3214 30.6652 16.9109 30.6652H15.9322V34.8107Z" fill="white" fill-opacity="0.4"/>
<path d="M27.2316 29.923H28.0838V33.6259C28.0838 34.0199 27.9912 34.3691 27.8061 34.6733C27.621 34.9757 27.3608 35.2139 27.0254 35.388C26.69 35.5603 26.2969 35.6464 25.8461 35.6464C25.3971 35.6464 25.0049 35.5603 24.6695 35.388C24.3341 35.2139 24.0739 34.9757 23.8888 34.6733C23.7037 34.3691 23.6111 34.0199 23.6111 33.6259V29.923H24.4606V33.5572C24.4606 33.8119 24.5165 34.0383 24.6283 34.2362C24.7419 34.4341 24.9022 34.5899 25.1093 34.7035C25.3164 34.8153 25.562 34.8712 25.8461 34.8712C26.132 34.8712 26.3785 34.8153 26.5856 34.7035C26.7945 34.5899 26.9539 34.4341 27.0639 34.2362C27.1757 34.0383 27.2316 33.8119 27.2316 33.5572V29.923Z" fill="white" fill-opacity="0.4"/>
<path d="M35.3311 31.402C35.3018 31.1417 35.1808 30.9401 34.9682 30.7972C34.7556 30.6524 34.4881 30.58 34.1655 30.58C33.9346 30.58 33.7348 30.6167 33.5662 30.69C33.3976 30.7614 33.2666 30.8604 33.1731 30.9869C33.0815 31.1115 33.0357 31.2535 33.0357 31.4129C33.0357 31.5467 33.0668 31.6622 33.1291 31.7593C33.1933 31.8565 33.2767 31.938 33.3793 32.004C33.4838 32.0681 33.5956 32.1222 33.7147 32.1662C33.8338 32.2083 33.9483 32.2432 34.0583 32.2706L34.6081 32.4136C34.7877 32.4576 34.9719 32.5171 35.1607 32.5923C35.3494 32.6674 35.5244 32.7664 35.6857 32.8892C35.847 33.012 35.9771 33.1641 36.0761 33.3455C36.1769 33.5269 36.2273 33.7441 36.2273 33.997C36.2273 34.3159 36.1448 34.5991 35.9799 34.8465C35.8168 35.0939 35.5794 35.2891 35.2679 35.432C34.9581 35.575 34.5834 35.6464 34.1435 35.6464C33.722 35.6464 33.3573 35.5795 33.0494 35.4458C32.7415 35.312 32.5005 35.1223 32.3264 34.8767C32.1523 34.6293 32.0561 34.3361 32.0378 33.997H32.89C32.9065 34.2005 32.9724 34.37 33.0879 34.5056C33.2052 34.6394 33.3546 34.7393 33.536 34.8052C33.7193 34.8694 33.9199 34.9015 34.138 34.9015C34.3781 34.9015 34.5916 34.8639 34.7785 34.7887C34.9673 34.7118 35.1158 34.6055 35.2239 34.4699C35.332 34.3324 35.3861 34.172 35.3861 33.9888C35.3861 33.822 35.3384 33.6855 35.2431 33.5792C35.1497 33.4729 35.0223 33.3849 34.861 33.3153C34.7016 33.2456 34.5211 33.1842 34.3195 33.1311L33.6542 32.9497C33.2034 32.8269 32.846 32.6463 32.5821 32.4081C32.32 32.1698 32.189 31.8546 32.189 31.4624C32.189 31.138 32.2769 30.8549 32.4529 30.613C32.6288 30.3711 32.8671 30.1832 33.1676 30.0494C33.4682 29.9138 33.8072 29.846 34.1848 29.846C34.566 29.846 34.9023 29.9129 35.1936 30.0467C35.4869 30.1805 35.7178 30.3647 35.8864 30.5992C36.055 30.832 36.143 31.0996 36.1503 31.402H35.3311Z" fill="white" fill-opacity="0.4"/>
<path d="M39.9064 30.6542V29.923H44.2636V30.6542H42.5069V35.553H41.6603V30.6542H39.9064Z" fill="white" fill-opacity="0.4"/>
<path d="M48.1681 35.553V29.923H50.1749C50.611 29.923 50.973 29.9981 51.2607 30.1484C51.5503 30.2987 51.7666 30.5067 51.9095 30.7724C52.0524 31.0363 52.1239 31.3415 52.1239 31.6879C52.1239 32.0324 52.0515 32.3357 51.9067 32.5978C51.7638 32.858 51.5475 33.0605 51.258 33.2053C50.9702 33.3501 50.6083 33.4225 50.1721 33.4225H48.6519V32.6912H50.0951C50.37 32.6912 50.5936 32.6518 50.7659 32.573C50.94 32.4942 51.0674 32.3797 51.148 32.2294C51.2287 32.0791 51.269 31.8986 51.269 31.6879C51.269 31.4753 51.2277 31.2911 51.1453 31.1353C51.0646 30.9795 50.9373 30.8604 50.7632 30.7779C50.5909 30.6936 50.3645 30.6515 50.0841 30.6515H49.0175V35.553H48.1681ZM50.9473 33.0129L52.3383 35.553H51.3707L50.0072 33.0129H50.9473Z" fill="white" fill-opacity="0.4"/>
<path d="M55.4608 29.923H56.4257L57.8964 32.4823H57.9569L59.4276 29.923H60.3925L58.35 33.3428V35.553H57.5033V33.3428L55.4608 29.923Z" fill="white" fill-opacity="0.4"/>
<defs>
<filter id="filter0_f_1_2153" x="18.4727" y="5.27258" width="15.0208" height="11.9103" filterUnits="userSpaceOnUse" color-interpolation-filters="sRGB">
<feFlood flood-opacity="0" result="BackgroundImageFix"/>
<feBlend mode="normal" in="SourceGraphic" in2="BackgroundImageFix" result="shape"/>
<feGaussianBlur stdDeviation="2" result="effect1_foregroundBlur_1_2153"/>
</filter>
<linearGradient id="paint0_linear_1_2153" x1="30.6519" y1="8.5616" x2="30.6519" y2="24.5584" gradientUnits="userSpaceOnUse">
<stop stop-color="white"/>
<stop offset="1" stop-color="#929395"/>
</linearGradient>
<linearGradient id="paint1_linear_1_2153" x1="30.6519" y1="8.5616" x2="30.6519" y2="24.5584" gradientUnits="userSpaceOnUse">
<stop stop-color="white"/>
<stop offset="1" stop-color="#929395"/>
</linearGradient>
<linearGradient id="paint2_linear_1_2153" x1="30.6519" y1="8.5616" x2="30.6519" y2="24.5584" gradientUnits="userSpaceOnUse">
<stop stop-color="white"/>
<stop offset="1" stop-color="#929395"/>
</linearGradient>
</defs>
</svg>
