<svg width="19" height="13" viewBox="0 0 19 13" fill="none" xmlns="http://www.w3.org/2000/svg">
<path fill-rule="evenodd" clip-rule="evenodd" d="M9.53517 3.10404C12.0223 3.10414 14.4143 4.02623 16.2168 5.67971C16.3525 5.80736 16.5695 5.80575 16.7032 5.6761L18.0007 4.41263C18.0683 4.34687 18.1061 4.25779 18.1055 4.16511C18.105 4.07243 18.0661 3.98379 17.9977 3.91879C13.2667 -0.455923 5.80294 -0.455923 1.07192 3.91879C1.00339 3.98374 0.964507 4.07235 0.963875 4.16504C0.963243 4.25772 1.00092 4.34682 1.06856 4.41263L2.36642 5.6761C2.50002 5.80595 2.71714 5.80756 2.85279 5.67971C4.65553 4.02612 7.04781 3.10403 9.53517 3.10404ZM9.53181 7.32431C10.8891 7.32423 12.198 7.83597 13.2041 8.7601C13.3402 8.89125 13.5546 8.88841 13.6872 8.75369L14.9745 7.43438C15.0423 7.36518 15.0799 7.2713 15.0789 7.17375C15.078 7.0762 15.0385 6.98312 14.9693 6.91533C11.9055 4.02448 7.16075 4.02448 4.09691 6.91533C4.02771 6.98312 3.98822 7.07625 3.98731 7.17383C3.9864 7.27141 4.02415 7.36528 4.09208 7.43438L5.37899 8.75369C5.51165 8.88841 5.72601 8.89125 5.8621 8.7601C6.86755 7.83658 8.17539 7.32488 9.53181 7.32431ZM12.0562 10.1179C12.0582 10.2232 12.0211 10.3248 11.9538 10.3986L9.77714 12.8533C9.71333 12.9255 9.62634 12.9661 9.53557 12.9661C9.4448 12.9661 9.35781 12.9255 9.294 12.8533L7.11697 10.3986C7.04972 10.3247 7.01272 10.2231 7.01472 10.1178C7.01671 10.0124 7.05752 9.91267 7.12751 9.84205C8.51761 8.52816 10.5535 8.52816 11.9436 9.84205C12.0136 9.91272 12.0543 10.0125 12.0562 10.1179Z" fill="white"/>
</svg>
