<svg width="37" height="44" viewBox="0 0 37 44" fill="none" xmlns="http://www.w3.org/2000/svg">
<g filter="url(#filter0_d_1_1113)">
<path d="M18.5 28C16.4425 27.9925 14.6652 27.5084 13.1682 26.5478C11.6712 25.5872 10.517 24.2026 9.70584 22.394C8.89464 20.5854 8.49273 18.4165 8.5001 15.8874C8.50747 13.3508 8.91307 11.197 9.7169 9.42589C10.5281 7.65478 11.6785 6.30769 13.1682 5.38462C14.6652 4.46154 16.4425 4 18.5 4C20.5575 4 22.3348 4.46529 23.8318 5.39587C25.3288 6.31895 26.483 7.66604 27.2942 9.43715C28.1054 11.2083 28.5073 13.3583 28.4999 15.8874C28.4999 18.4315 28.0943 20.6079 27.2831 22.4165C26.4719 24.2251 25.3178 25.6098 23.8207 26.5704C22.3311 27.5235 20.5575 28 18.5 28ZM18.5 22.9118C19.5619 22.9118 20.4321 22.349 21.1106 21.2233C21.7964 20.0901 22.1357 18.3114 22.1283 15.8874C22.1283 14.3039 21.9734 13.0094 21.6637 12.0038C21.354 10.9981 20.9262 10.2552 20.3805 9.77486C19.8348 9.28705 19.208 9.04315 18.5 9.04315C17.4381 9.04315 16.5716 9.59099 15.9005 10.6867C15.2294 11.7824 14.8865 13.5159 14.8717 15.8874C14.8643 17.5009 15.0155 18.8293 15.3253 19.8724C15.635 20.9081 16.0627 21.6735 16.6084 22.1689C17.1615 22.6642 17.792 22.9118 18.5 22.9118Z" fill="#FFEB7E"/>
</g>
<defs>
<filter id="filter0_d_1_1113" x="0.5" y="4" width="36" height="40" filterUnits="userSpaceOnUse" color-interpolation-filters="sRGB">
<feFlood flood-opacity="0" result="BackgroundImageFix"/>
<feColorMatrix in="SourceAlpha" type="matrix" values="0 0 0 0 0 0 0 0 0 0 0 0 0 0 0 0 0 0 127 0" result="hardAlpha"/>
<feOffset dy="8"/>
<feGaussianBlur stdDeviation="4"/>
<feComposite in2="hardAlpha" operator="out"/>
<feColorMatrix type="matrix" values="0 0 0 0 0.0951164 0 0 0 0 0.102085 0 0 0 0 0.126477 0 0 0 0.4 0"/>
<feBlend mode="normal" in2="BackgroundImageFix" result="effect1_dropShadow_1_1113"/>
<feBlend mode="normal" in="SourceGraphic" in2="effect1_dropShadow_1_1113" result="shape"/>
</filter>
</defs>
</svg>
