<svg width="20" height="13" viewBox="0 0 20 13" fill="none" xmlns="http://www.w3.org/2000/svg">
<path fill-rule="evenodd" clip-rule="evenodd" d="M19.4646 1.68205C19.4646 1.04901 18.9871 0.535828 18.398 0.535828H17.3313C16.7422 0.535828 16.2646 1.04901 16.2646 1.68205V11.616C16.2646 12.2491 16.7422 12.7622 17.3313 12.7622H18.398C18.9871 12.7622 19.4646 12.2491 19.4646 11.616V1.68205ZM12.0305 2.98111H13.0972C13.6863 2.98111 14.1639 3.50661 14.1639 4.15485V11.5885C14.1639 12.2367 13.6863 12.7622 13.0972 12.7622H12.0305C11.4414 12.7622 10.9639 12.2367 10.9639 11.5885V4.15485C10.9639 3.50661 11.4414 2.98111 12.0305 2.98111ZM7.69876 5.63016H6.6321C6.04299 5.63016 5.56543 6.16235 5.56543 6.81884V11.5736C5.56543 12.23 6.04299 12.7622 6.6321 12.7622H7.69876C8.28787 12.7622 8.76543 12.23 8.76543 11.5736V6.81884C8.76543 6.16235 8.28787 5.63016 7.69876 5.63016ZM2.39798 8.07545H1.33132C0.742211 8.07545 0.264648 8.60004 0.264648 9.24715V11.5905C0.264648 12.2377 0.742211 12.7622 1.33132 12.7622H2.39798C2.98709 12.7622 3.46465 12.2377 3.46465 11.5905V9.24715C3.46465 8.60004 2.98709 8.07545 2.39798 8.07545Z" fill="white"/>
</svg>
