<svg width="87" height="62" viewBox="0 0 87 62" fill="none" xmlns="http://www.w3.org/2000/svg">
<path d="M43.7699 12.5869C44.6143 12.6289 45.4154 12.9834 46.016 13.584C46.6567 14.2247 47.0169 15.0939 47.017 16V17.917H50.9613L51.1947 17.9307C51.4261 17.9571 51.652 18.0225 51.8627 18.124C52.1438 18.2596 52.3916 18.4563 52.5863 18.7002L57.225 24.499L57.3295 24.6416C57.5585 24.9828 57.6832 25.3853 57.684 25.7988V30.667C57.6839 31.2193 57.4641 31.749 57.0736 32.1396C56.683 32.5303 56.1525 32.7499 55.6 32.75H53.599C53.2571 34.2758 51.896 35.4159 50.267 35.416C48.6377 35.416 47.275 34.276 46.933 32.75H40.266C39.9242 34.2758 38.5629 35.4158 36.934 35.416C35.3048 35.416 33.942 34.276 33.6 32.75H31.6C31.0477 32.7499 30.518 32.5302 30.1273 32.1396C29.7366 31.7489 29.517 31.2185 29.517 30.666V16C29.5171 15.0939 29.8773 14.2247 30.518 13.584C31.1587 12.9434 32.0279 12.583 32.934 12.583H43.6L43.7699 12.5869ZM36.934 30.083C35.8755 30.083 35.0171 30.9416 35.017 32C35.0172 33.0584 35.8756 33.916 36.934 33.916C37.9922 33.9157 38.8498 33.0582 38.85 32C38.8499 30.9418 37.9922 30.0833 36.934 30.083ZM50.267 30.083C49.2085 30.083 48.3501 30.9416 48.35 32C48.3502 33.0584 49.2086 33.916 50.267 33.916C51.3253 33.9158 52.1828 33.0583 52.183 32C52.1829 30.9417 51.3253 30.0832 50.267 30.083ZM32.934 14.083C32.4258 14.083 31.9379 14.2852 31.5785 14.6445C31.2191 15.0039 31.0171 15.4918 31.017 16V30.666C31.017 30.8207 31.0785 30.9697 31.1879 31.0791C31.2972 31.1883 31.4455 31.2499 31.6 31.25H33.601C33.9431 29.724 35.3049 28.583 36.934 28.583C38.5629 28.5833 39.9241 29.7242 40.266 31.25H45.517V16C45.5169 15.4918 45.3149 15.0039 44.9555 14.6445C44.6409 14.33 44.2282 14.1363 43.7895 14.0928L43.6 14.083H32.934ZM47.017 30.9434C47.4622 29.5736 48.7489 28.583 50.267 28.583C51.896 28.5832 53.2571 29.7241 53.599 31.25H55.6C55.7546 31.2499 55.9038 31.1884 56.0131 31.0791C56.1222 30.9698 56.1839 30.8215 56.184 30.667V25.8018L56.1752 25.7031C56.1585 25.6066 56.117 25.5148 56.0551 25.4375V25.4365L51.4145 19.6367C51.36 19.5685 51.29 19.5126 51.2113 19.4746C51.172 19.4557 51.1305 19.4413 51.0883 19.4316L50.9594 19.417H47.017V30.9434Z" fill="white" fill-opacity="0.4"/>
<path d="M33.7398 48.0249C33.6712 47.8094 33.5788 47.6165 33.4628 47.446C33.3492 47.2732 33.2131 47.1264 33.0545 47.0057C32.8958 46.8826 32.7147 46.7891 32.5111 46.7251C32.3099 46.6612 32.0886 46.6293 31.8471 46.6293C31.4375 46.6293 31.0682 46.7346 30.7391 46.9453C30.41 47.156 30.1496 47.465 29.9579 47.8722C29.7685 48.277 29.6738 48.773 29.6738 49.3601C29.6738 49.9496 29.7697 50.4479 29.9614 50.8551C30.1532 51.2623 30.416 51.5713 30.7498 51.782C31.0836 51.9927 31.4636 52.098 31.8897 52.098C32.285 52.098 32.6295 52.0175 32.9231 51.8565C33.219 51.6955 33.4475 51.4683 33.6084 51.1747C33.7718 50.8788 33.8535 50.5308 33.8535 50.1307L34.1376 50.1839H32.0566V49.2784H34.9153V50.1058C34.9153 50.7166 34.785 51.2469 34.5246 51.6967C34.2666 52.1442 33.9091 52.4898 33.4522 52.7337C32.9976 52.9775 32.4768 53.0994 31.8897 53.0994C31.2315 53.0994 30.6539 52.9479 30.1567 52.6449C29.6619 52.3419 29.2761 51.9122 28.9991 51.3558C28.7221 50.7971 28.5836 50.1342 28.5836 49.3672C28.5836 48.7872 28.6641 48.2663 28.8251 47.8047C28.986 47.343 29.2121 46.9512 29.5033 46.6293C29.7969 46.3049 30.1413 46.0575 30.5367 45.8871C30.9344 45.7143 31.3689 45.6278 31.84 45.6278C32.233 45.6278 32.5987 45.6858 32.9373 45.8018C33.2782 45.9179 33.5812 46.0824 33.8464 46.2955C34.1139 46.5085 34.3352 46.7618 34.5104 47.0554C34.6856 47.3466 34.804 47.6697 34.8655 48.0249H33.7398ZM38.5205 53.1101C38.0092 53.1101 37.5629 52.9929 37.1818 52.7585C36.8006 52.5241 36.5047 52.1963 36.294 51.7749C36.0833 51.3535 35.9779 50.861 35.9779 50.2976C35.9779 49.7318 36.0833 49.237 36.294 48.8132C36.5047 48.3894 36.8006 48.0604 37.1818 47.826C37.5629 47.5916 38.0092 47.4744 38.5205 47.4744C39.0319 47.4744 39.4782 47.5916 39.8593 47.826C40.2405 48.0604 40.5364 48.3894 40.7471 48.8132C40.9578 49.237 41.0632 49.7318 41.0632 50.2976C41.0632 50.861 40.9578 51.3535 40.7471 51.7749C40.5364 52.1963 40.2405 52.5241 39.8593 52.7585C39.4782 52.9929 39.0319 53.1101 38.5205 53.1101ZM38.5241 52.2188C38.8555 52.2188 39.1302 52.1312 39.348 51.956C39.5658 51.7808 39.7268 51.5476 39.8309 51.2564C39.9375 50.9652 39.9907 50.6444 39.9907 50.294C39.9907 49.946 39.9375 49.6264 39.8309 49.3352C39.7268 49.0417 39.5658 48.8061 39.348 48.6286C39.1302 48.451 38.8555 48.3622 38.5241 48.3622C38.1903 48.3622 37.9133 48.451 37.6931 48.6286C37.4753 48.8061 37.3132 49.0417 37.2066 49.3352C37.1025 49.6264 37.0504 49.946 37.0504 50.294C37.0504 50.6444 37.1025 50.9652 37.2066 51.2564C37.3132 51.5476 37.4753 51.7808 37.6931 51.956C37.9133 52.1312 38.1903 52.2188 38.5241 52.2188ZM44.5459 53.1101C44.0346 53.1101 43.5883 52.9929 43.2072 52.7585C42.826 52.5241 42.5301 52.1963 42.3194 51.7749C42.1087 51.3535 42.0033 50.861 42.0033 50.2976C42.0033 49.7318 42.1087 49.237 42.3194 48.8132C42.5301 48.3894 42.826 48.0604 43.2072 47.826C43.5883 47.5916 44.0346 47.4744 44.5459 47.4744C45.0573 47.4744 45.5036 47.5916 45.8847 47.826C46.2659 48.0604 46.5618 48.3894 46.7725 48.8132C46.9832 49.237 47.0886 49.7318 47.0886 50.2976C47.0886 50.861 46.9832 51.3535 46.7725 51.7749C46.5618 52.1963 46.2659 52.5241 45.8847 52.7585C45.5036 52.9929 45.0573 53.1101 44.5459 53.1101ZM44.5495 52.2188C44.8809 52.2188 45.1556 52.1312 45.3734 51.956C45.5912 51.7808 45.7521 51.5476 45.8563 51.2564C45.9628 50.9652 46.0161 50.6444 46.0161 50.294C46.0161 49.946 45.9628 49.6264 45.8563 49.3352C45.7521 49.0417 45.5912 48.8061 45.3734 48.6286C45.1556 48.451 44.8809 48.3622 44.5495 48.3622C44.2157 48.3622 43.9387 48.451 43.7185 48.6286C43.5007 48.8061 43.3386 49.0417 43.232 49.3352C43.1279 49.6264 43.0758 49.946 43.0758 50.294C43.0758 50.6444 43.1279 50.9652 43.232 51.2564C43.3386 51.5476 43.5007 51.7808 43.7185 51.956C43.9387 52.1312 44.2157 52.2188 44.5495 52.2188ZM50.3156 53.1065C49.8753 53.1065 49.4823 52.9941 49.1367 52.7692C48.7934 52.5419 48.5235 52.2187 48.327 51.7997C48.1329 51.3783 48.0358 50.8729 48.0358 50.2834C48.0358 49.6939 48.1341 49.1896 48.3306 48.7706C48.5294 48.3516 48.8017 48.0308 49.1473 47.8082C49.493 47.5857 49.8848 47.4744 50.3228 47.4744C50.6613 47.4744 50.9335 47.5312 51.1395 47.6449C51.3478 47.7562 51.5088 47.8864 51.6225 48.0355C51.7385 48.1847 51.8284 48.3161 51.8924 48.4297H51.9563V45.7273H53.0181V53H51.9811V52.1513H51.8924C51.8284 52.2673 51.7361 52.3999 51.6154 52.549C51.497 52.6982 51.3336 52.8284 51.1253 52.9396C50.917 53.0509 50.6471 53.1065 50.3156 53.1065ZM50.55 52.201C50.8554 52.201 51.1135 52.1205 51.3242 51.9595C51.5372 51.7962 51.6982 51.5701 51.8071 51.2812C51.9184 50.9924 51.974 50.6562 51.974 50.2727C51.974 49.8939 51.9196 49.5625 51.8107 49.2784C51.7018 48.9943 51.542 48.773 51.3313 48.6143C51.1206 48.4557 50.8602 48.3764 50.55 48.3764C50.2304 48.3764 49.9641 48.4593 49.751 48.625C49.538 48.7907 49.377 49.0168 49.2681 49.3033C49.1615 49.5897 49.1083 49.9129 49.1083 50.2727C49.1083 50.6373 49.1627 50.9652 49.2716 51.2564C49.3805 51.5476 49.5415 51.7784 49.7546 51.9489C49.97 52.117 50.2352 52.201 50.55 52.201ZM58.6209 48.8771L57.6585 49.0476C57.6183 48.9245 57.5543 48.8073 57.4667 48.696C57.3815 48.5848 57.2655 48.4936 57.1187 48.4226C56.972 48.3516 56.7885 48.3161 56.5683 48.3161C56.2676 48.3161 56.0167 48.3835 55.8155 48.5185C55.6142 48.651 55.5136 48.8227 55.5136 49.0334C55.5136 49.2157 55.5811 49.3625 55.716 49.4737C55.851 49.585 56.0688 49.6761 56.3694 49.7472L57.2359 49.946C57.7378 50.062 58.1119 50.2408 58.3581 50.4822C58.6043 50.7237 58.7274 51.0374 58.7274 51.4233C58.7274 51.75 58.6327 52.0412 58.4433 52.2969C58.2563 52.5502 57.9947 52.7491 57.6585 52.8935C57.3247 53.0379 56.9376 53.1101 56.4973 53.1101C55.8865 53.1101 55.3882 52.9799 55.0023 52.7195C54.6164 52.4567 54.3796 52.0838 54.292 51.6009L55.3183 51.4446C55.3822 51.7121 55.5136 51.9145 55.7125 52.0518C55.9114 52.1868 56.1706 52.2543 56.4902 52.2543C56.8382 52.2543 57.1164 52.1821 57.3247 52.0376C57.533 51.8909 57.6372 51.7121 57.6372 51.5014C57.6372 51.331 57.5733 51.1877 57.4454 51.0717C57.32 50.9557 57.127 50.8681 56.8666 50.8089L55.9433 50.6065C55.4343 50.4905 55.0579 50.3059 54.8141 50.0526C54.5726 49.7992 54.4518 49.4785 54.4518 49.0902C54.4518 48.7682 54.5418 48.4865 54.7217 48.245C54.9016 48.0036 55.1502 47.8153 55.4675 47.6804C55.7847 47.5431 56.1481 47.4744 56.5577 47.4744C57.1471 47.4744 57.6112 47.6023 57.9497 47.858C58.2882 48.1113 58.512 48.451 58.6209 48.8771Z" fill="white" fill-opacity="0.4"/>
</svg>
