<svg width="62" height="17" viewBox="0 0 62 17" fill="none" xmlns="http://www.w3.org/2000/svg">
<path d="M10.0535 5.51882C10.1005 5.00134 9.97509 4.59624 9.67714 4.30352C9.3792 4.00557 8.8774 3.8566 8.17174 3.8566C7.72221 3.8566 7.34586 3.90887 7.04269 4.01342C6.74475 4.11796 6.51214 4.2617 6.34487 4.44465C6.18283 4.6276 6.08091 4.83929 6.03909 5.07974C5.99204 5.26792 5.99466 5.44041 6.04693 5.59722C6.10443 5.74881 6.21158 5.88733 6.3684 6.01278C6.53044 6.13823 6.74213 6.25061 7.00349 6.34992C7.27007 6.44924 7.58631 6.5381 7.9522 6.61651L9.2067 6.89877C10.0639 7.08694 10.7827 7.33523 11.3629 7.64363C11.9483 7.9468 12.4083 8.30747 12.7428 8.72564C13.0774 9.1438 13.2969 9.61163 13.4014 10.1291C13.5112 10.6466 13.5138 11.2111 13.4093 11.8227C13.2316 12.8786 12.8212 13.7724 12.1783 14.5042C11.5354 15.236 10.6964 15.7927 9.66146 16.1742C8.6265 16.5558 7.42949 16.7466 6.07045 16.7466C4.68005 16.7466 3.49872 16.5401 2.52648 16.1272C1.55947 15.709 0.859044 15.0713 0.425195 14.2141C-0.00342613 13.3516 -0.107968 12.2513 0.11157 10.9132H4.25142C4.1887 11.4045 4.24097 11.8175 4.40824 12.152C4.5755 12.4865 4.8447 12.74 5.21582 12.9125C5.58695 13.085 6.04954 13.1713 6.60361 13.1713C7.07405 13.1713 7.47654 13.1138 7.81107 12.9988C8.14561 12.8838 8.40957 12.7244 8.60298 12.5205C8.79638 12.3166 8.91399 12.084 8.9558 11.8227C8.99762 11.5822 8.9558 11.3679 8.83035 11.1798C8.7049 10.9916 8.47753 10.8217 8.14822 10.6701C7.81891 10.5185 7.36677 10.38 6.79179 10.2546L5.25503 9.90957C3.89076 9.59595 2.86102 9.07846 2.16582 8.35713C1.47061 7.63579 1.22494 6.64787 1.4288 5.39337C1.59606 4.36886 2.01684 3.47502 2.69114 2.71187C3.37066 1.94349 4.23313 1.3476 5.27855 0.924205C6.32919 0.495583 7.49222 0.281273 8.76763 0.281273C10.0639 0.281273 11.1486 0.498197 12.0215 0.932046C12.8996 1.36589 13.5295 1.97485 13.9111 2.75891C14.2979 3.54298 14.4024 4.46294 14.2247 5.51882H10.0535Z" fill="url(#paint0_linear_1_2158)"/>
<path d="M14.8104 4.01342L15.4063 0.500811H29.3626L28.7667 4.01342H23.9369L21.867 16.5584H17.5703L19.6402 4.01342H14.8104Z" fill="url(#paint1_linear_1_2158)"/>
<path d="M46.7633 16.5584L49.4291 0.500811H56.3602C57.552 0.500811 58.5582 0.717735 59.3788 1.15158C60.1995 1.58543 60.7902 2.21007 61.1508 3.0255C61.5115 3.84092 61.5977 4.81839 61.4096 5.95789C61.2214 7.10785 60.8058 8.07748 60.1629 8.86677C59.5252 9.65083 58.7124 10.2467 57.7245 10.6544C56.7418 11.0569 55.6389 11.2582 54.4157 11.2582H50.2759L50.8404 7.87101H54.1021C54.6143 7.87101 55.0639 7.80828 55.4507 7.68283C55.8375 7.55215 56.1511 7.3483 56.3916 7.07126C56.632 6.789 56.7888 6.41788 56.862 5.95789C56.9352 5.49791 56.8986 5.12417 56.7522 4.83668C56.6059 4.54396 56.3628 4.32965 56.0231 4.19375C55.6833 4.05262 55.2625 3.98205 54.7607 3.98205H53.2239L51.1227 16.5584H46.7633ZM57.3952 9.18823L60.1864 16.5584H55.4507L52.7535 9.18823H57.3952Z" fill="url(#paint2_linear_1_2158)"/>
<defs>
<linearGradient id="paint0_linear_1_2158" x1="30.6519" y1="0.561599" x2="30.6519" y2="16.5584" gradientUnits="userSpaceOnUse">
<stop stop-color="white"/>
<stop offset="1" stop-color="#929395"/>
</linearGradient>
<linearGradient id="paint1_linear_1_2158" x1="30.6519" y1="0.561599" x2="30.6519" y2="16.5584" gradientUnits="userSpaceOnUse">
<stop stop-color="white"/>
<stop offset="1" stop-color="#929395"/>
</linearGradient>
<linearGradient id="paint2_linear_1_2158" x1="30.6519" y1="0.561599" x2="30.6519" y2="16.5584" gradientUnits="userSpaceOnUse">
<stop stop-color="white"/>
<stop offset="1" stop-color="#929395"/>
</linearGradient>
</defs>
</svg>
