<svg width="86" height="62" viewBox="0 0 86 62" fill="none" xmlns="http://www.w3.org/2000/svg">
<g clip-path="url(#clip0_612_421)">
<path d="M43.3334 36.3334H31.3874C30.7049 36.3334 30.2229 35.6647 30.4388 35.0171L32.4388 29.0171C32.5749 28.6088 32.957 28.3334 33.3874 28.3334H39.9459C40.3764 28.3334 40.7585 28.6088 40.8946 29.0171L43.3334 36.3334ZM43.3334 36.3334L45.7721 29.0171C45.9082 28.6088 46.2903 28.3334 46.7208 28.3334H53.2793C53.7097 28.3334 54.0918 28.6088 54.2279 29.0171L56.2279 35.0171C56.4438 35.6647 55.9618 36.3334 55.2793 36.3334H43.3334ZM28.6667 24.3334H32.6667M32.9334 13.9334L35.7334 16.7334M43.3334 9.66669V13.6667M53.7334 13.9334L50.9334 16.7334M58 24.3334H54M48.6126 28.3334H38.0541C37.3716 28.3334 36.8896 27.6647 37.1054 27.0171L39.1054 21.0171C39.2415 20.6088 39.6237 20.3334 40.0541 20.3334H46.6126C47.043 20.3334 47.4252 20.6088 47.5613 21.0171L49.5613 27.0171C49.7771 27.6647 49.2952 28.3334 48.6126 28.3334Z" stroke="white" stroke-opacity="0.4" stroke-width="1.5" stroke-linecap="round" stroke-linejoin="round"/>
</g>
<path d="M21.7629 45.7273H23.0946L25.4099 51.3807H25.4951L27.8105 45.7273H29.1421V53H28.0981V47.7372H28.0306L25.8858 52.9893H25.0193L22.8744 47.7337H22.8069V53H21.7629V45.7273ZM32.2396 53.1207C31.894 53.1207 31.5815 53.0568 31.3021 52.929C31.0228 52.7988 30.8014 52.6106 30.6381 52.3643C30.4771 52.1181 30.3966 51.8163 30.3966 51.4588C30.3966 51.151 30.4558 50.8977 30.5741 50.6989C30.6925 50.5 30.8523 50.3426 31.0535 50.2266C31.2548 50.1106 31.4797 50.023 31.7283 49.9638C31.9768 49.9046 32.2302 49.8596 32.4882 49.8288C32.8149 49.791 33.0801 49.7602 33.2837 49.7365C33.4873 49.7105 33.6352 49.669 33.7276 49.6122C33.8199 49.5554 33.866 49.4631 33.866 49.3352V49.3104C33.866 49.0002 33.7785 48.7599 33.6033 48.5895C33.4304 48.419 33.1724 48.3338 32.8291 48.3338C32.4716 48.3338 32.1899 48.4131 31.9839 48.5717C31.7803 48.728 31.6395 48.902 31.5614 49.0938L30.5635 48.8665C30.6819 48.535 30.8547 48.2675 31.082 48.0639C31.3116 47.858 31.5756 47.7088 31.8739 47.6165C32.1722 47.5218 32.4858 47.4744 32.8149 47.4744C33.0327 47.4744 33.2635 47.5005 33.5074 47.5526C33.7536 47.6023 33.9832 47.6946 34.1963 47.8295C34.4117 47.9645 34.5881 48.1574 34.7254 48.4084C34.8627 48.657 34.9314 48.9801 34.9314 49.3778V53H33.8945V52.2543H33.8518C33.7832 52.3916 33.6802 52.5265 33.5429 52.6591C33.4056 52.7917 33.2292 52.9018 33.0138 52.9893C32.7983 53.0769 32.5403 53.1207 32.2396 53.1207ZM32.4705 52.2685C32.764 52.2685 33.015 52.2105 33.2233 52.0945C33.434 51.9785 33.5938 51.8269 33.7027 51.6399C33.814 51.4505 33.8696 51.2481 33.8696 51.0327V50.3295C33.8317 50.3674 33.7583 50.4029 33.6494 50.4361C33.5429 50.4669 33.421 50.4941 33.2837 50.5178C33.1464 50.5391 33.0126 50.5592 32.8824 50.5781C32.7522 50.5947 32.6433 50.6089 32.5557 50.6207C32.3497 50.6468 32.1615 50.6906 31.991 50.7521C31.823 50.8137 31.688 50.9025 31.5862 51.0185C31.4868 51.1321 31.4371 51.2836 31.4371 51.473C31.4371 51.7358 31.5341 51.9347 31.7283 52.0696C31.9224 52.2022 32.1698 52.2685 32.4705 52.2685ZM38.8918 47.5455V48.3977H35.9124V47.5455H38.8918ZM36.7114 46.2386H37.7732V51.3984C37.7732 51.6044 37.804 51.7595 37.8655 51.8636C37.9271 51.9654 38.0064 52.0353 38.1034 52.0732C38.2029 52.1087 38.3106 52.1264 38.4266 52.1264C38.5118 52.1264 38.5864 52.1205 38.6503 52.1087C38.7142 52.0968 38.764 52.0874 38.7995 52.0803L38.9912 52.9574C38.9297 52.9811 38.8421 53.0047 38.7284 53.0284C38.6148 53.0545 38.4728 53.0687 38.3023 53.071C38.0229 53.0758 37.7625 53.026 37.5211 52.9219C37.2796 52.8177 37.0843 52.6567 36.9351 52.4389C36.786 52.2211 36.7114 51.9477 36.7114 51.6186V46.2386ZM42.3586 53.1101C41.8212 53.1101 41.3584 52.9953 40.9701 52.7656C40.5842 52.5336 40.2859 52.2081 40.0752 51.7891C39.8669 51.3677 39.7627 50.8741 39.7627 50.3082C39.7627 49.7495 39.8669 49.2571 40.0752 48.831C40.2859 48.4048 40.5795 48.0722 40.9559 47.8331C41.3347 47.594 41.7774 47.4744 42.284 47.4744C42.5918 47.4744 42.8901 47.5253 43.1789 47.6271C43.4677 47.7289 43.727 47.8887 43.9566 48.1065C44.1862 48.3243 44.3674 48.6072 44.4999 48.9553C44.6325 49.3009 44.6988 49.7211 44.6988 50.2159V50.5923H40.3629V49.7969H43.6583C43.6583 49.5175 43.6015 49.2701 43.4879 49.0547C43.3742 48.8369 43.2144 48.6652 43.0084 48.5398C42.8049 48.4143 42.5657 48.3516 42.2911 48.3516C41.9928 48.3516 41.7324 48.425 41.5099 48.5717C41.2897 48.7161 41.1192 48.9055 40.9985 49.1399C40.8801 49.3719 40.8209 49.6241 40.8209 49.8963V50.5178C40.8209 50.8823 40.8849 51.1925 41.0127 51.4482C41.1429 51.7038 41.324 51.8991 41.556 52.0341C41.788 52.1667 42.0591 52.233 42.3692 52.233C42.5705 52.233 42.754 52.2045 42.9197 52.1477C43.0854 52.0885 43.2286 52.0009 43.3494 51.8849C43.4701 51.7689 43.5624 51.6257 43.6263 51.4553L44.6313 51.6364C44.5508 51.9323 44.4064 52.1915 44.1981 52.4141C43.9921 52.6342 43.7329 52.8059 43.4204 52.929C43.1102 53.0497 42.7563 53.1101 42.3586 53.1101ZM45.8769 53V47.5455H46.9032V48.4119H46.96C47.0594 48.1184 47.2346 47.8875 47.4855 47.7195C47.7389 47.549 48.0253 47.4638 48.3449 47.4638C48.4112 47.4638 48.4893 47.4661 48.5793 47.4709C48.6716 47.4756 48.7438 47.4815 48.7959 47.4886V48.5043C48.7533 48.4924 48.6775 48.4794 48.5686 48.4652C48.4597 48.4486 48.3508 48.4403 48.2419 48.4403C47.991 48.4403 47.7673 48.4936 47.5708 48.6001C47.3766 48.7043 47.2228 48.8499 47.1091 49.0369C46.9955 49.2216 46.9387 49.4323 46.9387 49.669V53H45.8769ZM49.7148 53V47.5455H50.7766V53H49.7148ZM50.251 46.7038C50.0663 46.7038 49.9077 46.6423 49.7751 46.5192C49.6449 46.3937 49.5798 46.2446 49.5798 46.0717C49.5798 45.8965 49.6449 45.7474 49.7751 45.6243C49.9077 45.4988 50.0663 45.4361 50.251 45.4361C50.4357 45.4361 50.5931 45.4988 50.7233 45.6243C50.8559 45.7474 50.9222 45.8965 50.9222 46.0717C50.9222 46.2446 50.8559 46.3937 50.7233 46.5192C50.5931 46.6423 50.4357 46.7038 50.251 46.7038ZM53.7924 53.1207C53.4467 53.1207 53.1342 53.0568 52.8549 52.929C52.5755 52.7988 52.3542 52.6106 52.1908 52.3643C52.0298 52.1181 51.9493 51.8163 51.9493 51.4588C51.9493 51.151 52.0085 50.8977 52.1269 50.6989C52.2453 50.5 52.4051 50.3426 52.6063 50.2266C52.8075 50.1106 53.0324 50.023 53.281 49.9638C53.5296 49.9046 53.7829 49.8596 54.0409 49.8288C54.3676 49.791 54.6328 49.7602 54.8364 49.7365C55.04 49.7105 55.188 49.669 55.2803 49.6122C55.3726 49.5554 55.4188 49.4631 55.4188 49.3352V49.3104C55.4188 49.0002 55.3312 48.7599 55.156 48.5895C54.9832 48.419 54.7251 48.3338 54.3819 48.3338C54.0244 48.3338 53.7426 48.4131 53.5367 48.5717C53.3331 48.728 53.1922 48.902 53.1141 49.0938L52.1162 48.8665C52.2346 48.535 52.4074 48.2675 52.6347 48.0639C52.8643 47.858 53.1283 47.7088 53.4266 47.6165C53.7249 47.5218 54.0386 47.4744 54.3676 47.4744C54.5854 47.4744 54.8163 47.5005 55.0601 47.5526C55.3063 47.6023 55.536 47.6946 55.749 47.8295C55.9645 47.9645 56.1408 48.1574 56.2782 48.4084C56.4155 48.657 56.4841 48.9801 56.4841 49.3778V53H55.4472V52.2543H55.4046C55.3359 52.3916 55.2329 52.5265 55.0956 52.6591C54.9583 52.7917 54.7819 52.9018 54.5665 52.9893C54.3511 53.0769 54.093 53.1207 53.7924 53.1207ZM54.0232 52.2685C54.3167 52.2685 54.5677 52.2105 54.776 52.0945C54.9867 51.9785 55.1465 51.8269 55.2554 51.6399C55.3667 51.4505 55.4223 51.2481 55.4223 51.0327V50.3295C55.3845 50.3674 55.3111 50.4029 55.2022 50.4361C55.0956 50.4669 54.9737 50.4941 54.8364 50.5178C54.6991 50.5391 54.5653 50.5592 54.4351 50.5781C54.3049 50.5947 54.196 50.6089 54.1084 50.6207C53.9024 50.6468 53.7142 50.6906 53.5438 50.7521C53.3757 50.8137 53.2408 50.9025 53.139 51.0185C53.0395 51.1321 52.9898 51.2836 52.9898 51.473C52.9898 51.7358 53.0869 51.9347 53.281 52.0696C53.4751 52.2022 53.7225 52.2685 54.0232 52.2685ZM58.9602 45.7273V53H57.8984V45.7273H58.9602ZM64.476 48.8771L63.5136 49.0476C63.4734 48.9245 63.4094 48.8073 63.3218 48.696C63.2366 48.5848 63.1206 48.4936 62.9738 48.4226C62.827 48.3516 62.6436 48.3161 62.4234 48.3161C62.1227 48.3161 61.8718 48.3835 61.6706 48.5185C61.4693 48.651 61.3687 48.8227 61.3687 49.0334C61.3687 49.2157 61.4362 49.3625 61.5711 49.4737C61.7061 49.585 61.9239 49.6761 62.2245 49.7472L63.091 49.946C63.5929 50.062 63.967 50.2408 64.2132 50.4822C64.4594 50.7237 64.5825 51.0374 64.5825 51.4233C64.5825 51.75 64.4878 52.0412 64.2984 52.2969C64.1114 52.5502 63.8498 52.7491 63.5136 52.8935C63.1798 53.0379 62.7927 53.1101 62.3524 53.1101C61.7416 53.1101 61.2432 52.9799 60.8573 52.7195C60.4715 52.4567 60.2347 52.0838 60.1471 51.6009L61.1734 51.4446C61.2373 51.7121 61.3687 51.9145 61.5676 52.0518C61.7664 52.1868 62.0257 52.2543 62.3453 52.2543C62.6933 52.2543 62.9715 52.1821 63.1798 52.0376C63.3881 51.8909 63.4923 51.7121 63.4923 51.5014C63.4923 51.331 63.4284 51.1877 63.3005 51.0717C63.1751 50.9557 62.9821 50.8681 62.7217 50.8089L61.7984 50.6065C61.2894 50.4905 60.913 50.3059 60.6691 50.0526C60.4277 49.7992 60.3069 49.4785 60.3069 49.0902C60.3069 48.7682 60.3969 48.4865 60.5768 48.245C60.7567 48.0036 61.0053 47.8153 61.3225 47.6804C61.6398 47.5431 62.0032 47.4744 62.4127 47.4744C63.0022 47.4744 63.4662 47.6023 63.8048 47.858C64.1433 48.1113 64.3671 48.451 64.476 48.8771Z" fill="white" fill-opacity="0.4"/>
<defs>
<clipPath id="clip0_612_421">
<rect width="32" height="32" fill="white" transform="translate(27 8)"/>
</clipPath>
</defs>
</svg>
