<svg width="86" height="62" viewBox="0 0 86 62" fill="none" xmlns="http://www.w3.org/2000/svg">
<path d="M50.0295 17.8057L58.8 17.8936L52.2219 24.4707L55.5549 33.6797L47.5744 29.8213L35.3069 38.1523L40.0315 26.3125L26.8 17.8936L43.6272 17.8057L46.6096 10L50.0295 17.8057ZM45.3811 21.2256L40.1194 21.5771L44.2414 24.2959L42.3996 29.3828L46.6965 26.2246L50.468 28.0664L48.8899 23.8574L51.7834 20.875L47.925 21.0508L46.6965 17.7178L45.3811 21.2256Z" fill="white" fill-opacity="0.4"/>
<path d="M35.3657 49.3636C35.3657 50.1402 35.2237 50.8078 34.9396 51.3665C34.6555 51.9228 34.266 52.3513 33.7713 52.652C33.2788 52.9503 32.7189 53.0994 32.0916 53.0994C31.4618 53.0994 30.8996 52.9503 30.4048 52.652C29.9123 52.3513 29.5241 51.9216 29.24 51.3629C28.9559 50.8042 28.8139 50.1378 28.8139 49.3636C28.8139 48.5871 28.9559 47.9207 29.24 47.3643C29.5241 46.8056 29.9123 46.3771 30.4048 46.0788C30.8996 45.7782 31.4618 45.6278 32.0916 45.6278C32.7189 45.6278 33.2788 45.7782 33.7713 46.0788C34.266 46.3771 34.6555 46.8056 34.9396 47.3643C35.2237 47.9207 35.3657 48.5871 35.3657 49.3636ZM34.2791 49.3636C34.2791 48.7718 34.1832 48.2734 33.9914 47.8686C33.802 47.4614 33.5416 47.1536 33.2102 46.9453C32.8811 46.7346 32.5082 46.6293 32.0916 46.6293C31.6725 46.6293 31.2985 46.7346 30.9694 46.9453C30.6403 47.1536 30.3799 47.4614 30.1882 47.8686C29.9988 48.2734 29.9041 48.7718 29.9041 49.3636C29.9041 49.9555 29.9988 50.455 30.1882 50.8622C30.3799 51.267 30.6403 51.5748 30.9694 51.7855C31.2985 51.9938 31.6725 52.098 32.0916 52.098C32.5082 52.098 32.8811 51.9938 33.2102 51.7855C33.5416 51.5748 33.802 51.267 33.9914 50.8622C34.1832 50.455 34.2791 49.9555 34.2791 49.3636ZM39.2444 47.5455V48.3977H36.1621V47.5455H39.2444ZM37.0072 53V46.9134C37.0072 46.5724 37.0818 46.2895 37.2309 46.0646C37.3801 45.8374 37.5778 45.6681 37.824 45.5568C38.0702 45.4432 38.3377 45.3864 38.6265 45.3864C38.8396 45.3864 39.0219 45.4041 39.1734 45.4396C39.3249 45.4728 39.4374 45.5036 39.5108 45.532L39.2622 46.3913C39.2125 46.3771 39.1486 46.3606 39.0704 46.3416C38.9923 46.3203 38.8976 46.3097 38.7863 46.3097C38.5283 46.3097 38.3436 46.3736 38.2324 46.5014C38.1235 46.6293 38.069 46.8139 38.069 47.0554V53H37.0072ZM42.9358 47.5455V48.3977H39.8535V47.5455H42.9358ZM40.6986 53V46.9134C40.6986 46.5724 40.7732 46.2895 40.9224 46.0646C41.0715 45.8374 41.2692 45.6681 41.5154 45.5568C41.7616 45.4432 42.0291 45.3864 42.3179 45.3864C42.531 45.3864 42.7133 45.4041 42.8648 45.4396C43.0163 45.4728 43.1288 45.5036 43.2022 45.532L42.9536 46.3913C42.9039 46.3771 42.84 46.3606 42.7618 46.3416C42.6837 46.3203 42.589 46.3097 42.4777 46.3097C42.2197 46.3097 42.035 46.3736 41.9238 46.5014C41.8149 46.6293 41.7604 46.8139 41.7604 47.0554V53H40.6986ZM44.0314 53V47.5455H45.0932V53H44.0314ZM44.5676 46.7038C44.3829 46.7038 44.2243 46.6423 44.0917 46.5192C43.9615 46.3937 43.8964 46.2446 43.8964 46.0717C43.8964 45.8965 43.9615 45.7474 44.0917 45.6243C44.2243 45.4988 44.3829 45.4361 44.5676 45.4361C44.7523 45.4361 44.9097 45.4988 45.0399 45.6243C45.1725 45.7474 45.2388 45.8965 45.2388 46.0717C45.2388 46.2446 45.1725 46.3937 45.0399 46.5192C44.9097 46.6423 44.7523 46.7038 44.5676 46.7038ZM48.8192 53.1101C48.2913 53.1101 47.8367 52.9905 47.4556 52.7514C47.0768 52.5099 46.7856 52.1773 46.582 51.7536C46.3784 51.3298 46.2766 50.8445 46.2766 50.2976C46.2766 49.7436 46.3807 49.2547 46.5891 48.831C46.7974 48.4048 47.091 48.0722 47.4698 47.8331C47.8485 47.594 48.2948 47.4744 48.8085 47.4744C49.2228 47.4744 49.5922 47.5514 49.9165 47.7053C50.2408 47.8568 50.5024 48.0698 50.7013 48.3445C50.9025 48.6191 51.0221 48.9399 51.06 49.3068H50.0266C49.9698 49.0511 49.8396 48.831 49.636 48.6463C49.4347 48.4616 49.1648 48.3693 48.8263 48.3693C48.5304 48.3693 48.2711 48.4474 48.0486 48.6037C47.8284 48.7576 47.6568 48.9777 47.5337 49.2642C47.4106 49.5483 47.349 49.8845 47.349 50.2727C47.349 50.6705 47.4094 51.0137 47.5301 51.3026C47.6509 51.5914 47.8213 51.8151 48.0415 51.9737C48.264 52.1323 48.5256 52.2116 48.8263 52.2116C49.0275 52.2116 49.2098 52.175 49.3732 52.1016C49.5389 52.0258 49.6774 51.9181 49.7887 51.7784C49.9023 51.6387 49.9816 51.4706 50.0266 51.2741H51.06C51.0221 51.6269 50.9073 51.9418 50.7155 52.2188C50.5237 52.4957 50.2669 52.7135 49.9449 52.8722C49.6253 53.0308 49.2501 53.1101 48.8192 53.1101ZM54.5463 53.1101C54.0089 53.1101 53.546 52.9953 53.1578 52.7656C52.7719 52.5336 52.4736 52.2081 52.2629 51.7891C52.0546 51.3677 51.9504 50.8741 51.9504 50.3082C51.9504 49.7495 52.0546 49.2571 52.2629 48.831C52.4736 48.4048 52.7672 48.0722 53.1436 47.8331C53.5224 47.594 53.9651 47.4744 54.4717 47.4744C54.7795 47.4744 55.0778 47.5253 55.3666 47.6271C55.6554 47.7289 55.9147 47.8887 56.1443 48.1065C56.3739 48.3243 56.555 48.6072 56.6876 48.9553C56.8202 49.3009 56.8865 49.7211 56.8865 50.2159V50.5923H52.5505V49.7969H55.846C55.846 49.5175 55.7892 49.2701 55.6755 49.0547C55.5619 48.8369 55.4021 48.6652 55.1961 48.5398C54.9925 48.4143 54.7534 48.3516 54.4788 48.3516C54.1805 48.3516 53.9201 48.425 53.6976 48.5717C53.4774 48.7161 53.3069 48.9055 53.1862 49.1399C53.0678 49.3719 53.0086 49.6241 53.0086 49.8963V50.5178C53.0086 50.8823 53.0726 51.1925 53.2004 51.4482C53.3306 51.7038 53.5117 51.8991 53.7437 52.0341C53.9757 52.1667 54.2468 52.233 54.5569 52.233C54.7582 52.233 54.9416 52.2045 55.1074 52.1477C55.2731 52.0885 55.4163 52.0009 55.5371 51.8849C55.6578 51.7689 55.7501 51.6257 55.814 51.4553L56.819 51.6364C56.7385 51.9323 56.5941 52.1915 56.3858 52.4141C56.1798 52.6342 55.9206 52.8059 55.6081 52.929C55.2979 53.0497 54.944 53.1101 54.5463 53.1101Z" fill="white" fill-opacity="0.4"/>
</svg>
