<svg width="87" height="62" viewBox="0 0 87 62" fill="none" xmlns="http://www.w3.org/2000/svg">
<path d="M34.4495 11.1782C36.8286 10.4593 39.3343 10.2567 41.7981 10.5834C44.0503 10.8821 46.2202 11.6186 48.1877 12.7465L48.5676 12.3676L48.5725 12.3618C48.9712 11.971 49.5084 11.7525 50.0666 11.7524C50.555 11.7525 51.0263 11.9205 51.4036 12.2241L51.5598 12.3618L51.5657 12.3676L55.0315 15.8344L55.0373 15.8403C55.4282 16.239 55.6477 16.7751 55.6477 17.3334C55.6477 17.8918 55.4282 18.4278 55.0373 18.8266L54.6526 19.2104C55.7811 21.1785 56.5178 23.349 56.8166 25.602C57.1433 28.0657 56.9397 30.5706 56.2209 32.9496C56.1998 33.0197 56.1695 33.0871 56.1301 33.1489C55.9242 33.4715 55.6349 33.7332 55.2932 33.9057C54.9514 34.0782 54.5687 34.1563 54.1868 34.1303C53.8049 34.1042 53.4366 33.9754 53.1213 33.7582C52.8061 33.541 52.5551 33.2426 52.3948 32.895C52.3833 32.8701 52.3724 32.8447 52.3635 32.8188C51.445 30.1288 50.1294 27.5934 48.4631 25.2944C48.1421 25.4794 47.7763 25.5815 47.3997 25.5815C47.261 25.5815 47.1237 25.5678 46.9895 25.5414L36.7913 35.7397C36.1108 36.42 35.187 36.8022 34.2248 36.8022C33.2628 36.8021 32.3397 36.4199 31.6594 35.7397C30.9792 35.0594 30.5972 34.1363 30.5969 33.1743C30.5969 32.2121 30.9791 31.2883 31.6594 30.6078L41.8586 20.4086C41.8326 20.2751 41.8186 20.1384 41.8186 20.0004C41.8186 19.6241 41.9194 19.2581 42.1038 18.937C39.8054 17.2712 37.2704 15.956 34.5813 15.0375C34.5556 15.0287 34.5298 15.0186 34.5051 15.0073C34.157 14.847 33.8584 14.5952 33.6409 14.2797C33.4234 13.9642 33.2948 13.5956 33.2688 13.2133C33.2429 12.8311 33.3207 12.4488 33.4934 12.1069C33.6663 11.7649 33.928 11.4748 34.2512 11.269C34.3127 11.2299 34.3797 11.1993 34.4495 11.1782ZM32.7913 31.7397C32.411 32.1201 32.1965 32.6364 32.1965 33.1743C32.1968 33.7119 32.4111 34.2277 32.7913 34.6078C33.1715 34.988 33.6871 35.2024 34.2248 35.2026C34.7627 35.2026 35.279 34.9881 35.6594 34.6078L45.6018 24.6664L42.7317 21.7973L32.7913 31.7397ZM49.6536 24.2094C51.4521 26.6599 52.87 29.3694 53.8586 32.2465C53.8988 32.324 53.9575 32.3912 54.0295 32.4409C54.1081 32.4949 54.2001 32.527 54.2952 32.5336C54.3904 32.5401 54.4863 32.5208 54.5715 32.478C54.6305 32.4482 54.6829 32.4065 54.7268 32.3578C55.3485 30.2351 55.5206 28.0056 55.2297 25.812C54.9774 23.9097 54.3814 22.0726 53.4758 20.3871L49.6536 24.2094ZM50.0666 13.352C49.9298 13.3521 49.7975 13.4052 49.6985 13.4995L43.8508 19.3471C43.8427 19.3559 43.8339 19.3641 43.8254 19.3725L43.5657 19.6323C43.4714 19.7313 43.4182 19.8635 43.4182 20.0004C43.4183 20.1372 43.4716 20.2687 43.5657 20.3676L47.0256 23.8286C47.1252 23.9262 47.2602 23.9808 47.3997 23.9809C47.5391 23.9809 47.6731 23.9261 47.7727 23.8286L53.8948 17.7065C53.9924 17.6068 54.0471 17.473 54.0471 17.3334C54.0471 17.1939 53.9924 17.0601 53.8948 16.9604V16.9594L50.4338 13.4995H50.4329C50.334 13.4057 50.2032 13.3521 50.0666 13.352ZM41.5881 12.1694C39.3941 11.8784 37.1633 12.0502 35.0403 12.6723C34.9915 12.7162 34.951 12.7695 34.9211 12.8286C34.8781 12.9139 34.8581 13.0096 34.8645 13.1049C34.871 13.2004 34.9039 13.2927 34.9582 13.3715C35.0088 13.4448 35.0773 13.5032 35.1565 13.5434C38.0313 14.5318 40.7389 15.9493 43.1877 17.7465L47.012 13.9223C45.3271 13.0169 43.4898 12.4216 41.5881 12.1694Z" fill="white" fill-opacity="0.4"/>
<path d="M19.1355 53V45.7273H21.7279C22.2913 45.7273 22.7589 45.8243 23.1306 46.0185C23.5046 46.2126 23.784 46.4813 23.9686 46.8246C24.1533 47.1655 24.2456 47.5597 24.2456 48.0071C24.2456 48.4522 24.1521 48.844 23.9651 49.1825C23.7804 49.5187 23.5011 49.7803 23.127 49.9673C22.7553 50.1544 22.2878 50.2479 21.7243 50.2479H19.7605V49.3033H21.6249C21.98 49.3033 22.2688 49.2524 22.4914 49.1506C22.7163 49.0488 22.8808 48.9008 22.985 48.7067C23.0891 48.5125 23.1412 48.2794 23.1412 48.0071C23.1412 47.7325 23.088 47.4946 22.9814 47.2933C22.8773 47.0921 22.7127 46.9382 22.4878 46.8317C22.2653 46.7228 21.9729 46.6683 21.6107 46.6683H20.2328V53H19.1355ZM22.7257 49.7188L24.5226 53H23.2726L21.5112 49.7188H22.7257ZM27.7781 53.1101C27.2407 53.1101 26.7779 52.9953 26.3896 52.7656C26.0037 52.5336 25.7054 52.2081 25.4947 51.7891C25.2864 51.3677 25.1822 50.8741 25.1822 50.3082C25.1822 49.7495 25.2864 49.2571 25.4947 48.831C25.7054 48.4048 25.999 48.0722 26.3754 47.8331C26.7542 47.594 27.1969 47.4744 27.7035 47.4744C28.0113 47.4744 28.3096 47.5253 28.5984 47.6271C28.8873 47.7289 29.1465 47.8887 29.3761 48.1065C29.6058 48.3243 29.7869 48.6072 29.9195 48.9553C30.052 49.3009 30.1183 49.7211 30.1183 50.2159V50.5923H25.7824V49.7969H29.0778C29.0778 49.5175 29.021 49.2701 28.9074 49.0547C28.7937 48.8369 28.6339 48.6652 28.428 48.5398C28.2244 48.4143 27.9853 48.3516 27.7106 48.3516C27.4123 48.3516 27.1519 48.425 26.9294 48.5717C26.7092 48.7161 26.5388 48.9055 26.418 49.1399C26.2997 49.3719 26.2405 49.6241 26.2405 49.8963V50.5178C26.2405 50.8823 26.3044 51.1925 26.4322 51.4482C26.5624 51.7038 26.7436 51.8991 26.9756 52.0341C27.2076 52.1667 27.4786 52.233 27.7888 52.233C27.99 52.233 28.1735 52.2045 28.3392 52.1477C28.5049 52.0885 28.6481 52.0009 28.7689 51.8849C28.8896 51.7689 28.982 51.6257 29.0459 51.4553L30.0508 51.6364C29.9704 51.9323 29.8259 52.1915 29.6176 52.4141C29.4116 52.6342 29.1524 52.8059 28.8399 52.929C28.5298 53.0497 28.1758 53.1101 27.7781 53.1101ZM35.3838 48.8771L34.4214 49.0476C34.3812 48.9245 34.3172 48.8073 34.2296 48.696C34.1444 48.5848 34.0284 48.4936 33.8816 48.4226C33.7349 48.3516 33.5514 48.3161 33.3312 48.3161C33.0305 48.3161 32.7796 48.3835 32.5784 48.5185C32.3771 48.651 32.2765 48.8227 32.2765 49.0334C32.2765 49.2157 32.344 49.3625 32.4789 49.4737C32.6139 49.585 32.8317 49.6761 33.1323 49.7472L33.9988 49.946C34.5007 50.062 34.8748 50.2408 35.121 50.4822C35.3672 50.7237 35.4903 51.0374 35.4903 51.4233C35.4903 51.75 35.3956 52.0412 35.2062 52.2969C35.0192 52.5502 34.7576 52.7491 34.4214 52.8935C34.0876 53.0379 33.7005 53.1101 33.2602 53.1101C32.6494 53.1101 32.151 52.9799 31.7652 52.7195C31.3793 52.4567 31.1425 52.0838 31.0549 51.6009L32.0812 51.4446C32.1451 51.7121 32.2765 51.9145 32.4754 52.0518C32.6742 52.1868 32.9335 52.2543 33.2531 52.2543C33.6011 52.2543 33.8793 52.1821 34.0876 52.0376C34.2959 51.8909 34.4001 51.7121 34.4001 51.5014C34.4001 51.331 34.3362 51.1877 34.2083 51.0717C34.0829 50.9557 33.8899 50.8681 33.6295 50.8089L32.7062 50.6065C32.1972 50.4905 31.8208 50.3059 31.5769 50.0526C31.3355 49.7992 31.2147 49.4785 31.2147 49.0902C31.2147 48.7682 31.3047 48.4865 31.4846 48.245C31.6645 48.0036 31.9131 47.8153 32.2304 47.6804C32.5476 47.5431 32.911 47.4744 33.3206 47.4744C33.91 47.4744 34.3741 47.6023 34.7126 47.858C35.0511 48.1113 35.2749 48.451 35.3838 48.8771ZM38.9553 53.1101C38.444 53.1101 37.9977 52.9929 37.6165 52.7585C37.2354 52.5241 36.9395 52.1963 36.7288 51.7749C36.5181 51.3535 36.4127 50.861 36.4127 50.2976C36.4127 49.7318 36.5181 49.237 36.7288 48.8132C36.9395 48.3894 37.2354 48.0604 37.6165 47.826C37.9977 47.5916 38.444 47.4744 38.9553 47.4744C39.4667 47.4744 39.9129 47.5916 40.2941 47.826C40.6753 48.0604 40.9712 48.3894 41.1819 48.8132C41.3926 49.237 41.4979 49.7318 41.4979 50.2976C41.4979 50.861 41.3926 51.3535 41.1819 51.7749C40.9712 52.1963 40.6753 52.5241 40.2941 52.7585C39.9129 52.9929 39.4667 53.1101 38.9553 53.1101ZM38.9589 52.2188C39.2903 52.2188 39.5649 52.1312 39.7827 51.956C40.0005 51.7808 40.1615 51.5476 40.2657 51.2564C40.3722 50.9652 40.4255 50.6444 40.4255 50.294C40.4255 49.946 40.3722 49.6264 40.2657 49.3352C40.1615 49.0417 40.0005 48.8061 39.7827 48.6286C39.5649 48.451 39.2903 48.3622 38.9589 48.3622C38.6251 48.3622 38.3481 48.451 38.1279 48.6286C37.9101 48.8061 37.7479 49.0417 37.6414 49.3352C37.5372 49.6264 37.4851 49.946 37.4851 50.294C37.4851 50.6444 37.5372 50.9652 37.6414 51.2564C37.7479 51.5476 37.9101 51.7808 38.1279 51.956C38.3481 52.1312 38.6251 52.2188 38.9589 52.2188ZM46.1384 50.7379V47.5455H47.2037V53H46.1597V52.0554H46.1029C45.9774 52.3466 45.7762 52.5893 45.4992 52.7834C45.2246 52.9751 44.8825 53.071 44.4729 53.071C44.1225 53.071 43.8124 52.9941 43.5425 52.8402C43.275 52.6839 43.0643 52.4531 42.9104 52.1477C42.7589 51.8423 42.6831 51.4647 42.6831 51.0149V47.5455H43.7449V50.8871C43.7449 51.2588 43.8479 51.5547 44.0539 51.7749C44.2598 51.995 44.5273 52.1051 44.8564 52.1051C45.0553 52.1051 45.253 52.0554 45.4495 51.956C45.6483 51.8565 45.8129 51.7062 45.9431 51.505C46.0756 51.3037 46.1407 51.0481 46.1384 50.7379ZM48.6304 53V47.5455H49.6567V48.4119H49.7135C49.8129 48.1184 49.9881 47.8875 50.2391 47.7195C50.4924 47.549 50.7788 47.4638 51.0984 47.4638C51.1647 47.4638 51.2428 47.4661 51.3328 47.4709C51.4251 47.4756 51.4973 47.4815 51.5494 47.4886V48.5043C51.5068 48.4924 51.4311 48.4794 51.3222 48.4652C51.2132 48.4486 51.1043 48.4403 50.9954 48.4403C50.7445 48.4403 50.5208 48.4936 50.3243 48.6001C50.1302 48.7043 49.9763 48.8499 49.8626 49.0369C49.749 49.2216 49.6922 49.4323 49.6922 49.669V53H48.6304ZM54.5706 53.1101C54.0426 53.1101 53.5881 52.9905 53.2069 52.7514C52.8281 52.5099 52.5369 52.1773 52.3333 51.7536C52.1297 51.3298 52.0279 50.8445 52.0279 50.2976C52.0279 49.7436 52.1321 49.2547 52.3404 48.831C52.5488 48.4048 52.8423 48.0722 53.2211 47.8331C53.5999 47.594 54.0462 47.4744 54.5599 47.4744C54.9742 47.4744 55.3435 47.5514 55.6679 47.7053C55.9922 47.8568 56.2538 48.0698 56.4527 48.3445C56.6539 48.6191 56.7734 48.9399 56.8113 49.3068H55.7779C55.7211 49.0511 55.5909 48.831 55.3873 48.6463C55.1861 48.4616 54.9162 48.3693 54.5777 48.3693C54.2817 48.3693 54.0225 48.4474 53.8 48.6037C53.5798 48.7576 53.4081 48.9777 53.285 49.2642C53.1619 49.5483 53.1004 49.8845 53.1004 50.2727C53.1004 50.6705 53.1608 51.0137 53.2815 51.3026C53.4022 51.5914 53.5727 51.8151 53.7929 51.9737C54.0154 52.1323 54.277 52.2116 54.5777 52.2116C54.7789 52.2116 54.9612 52.175 55.1245 52.1016C55.2902 52.0258 55.4287 51.9181 55.54 51.7784C55.6536 51.6387 55.733 51.4706 55.7779 51.2741H56.8113C56.7734 51.6269 56.6586 51.9418 56.4669 52.2188C56.2751 52.4957 56.0182 52.7135 55.6963 52.8722C55.3767 53.0308 55.0014 53.1101 54.5706 53.1101ZM60.2976 53.1101C59.7602 53.1101 59.2974 52.9953 58.9092 52.7656C58.5233 52.5336 58.225 52.2081 58.0143 51.7891C57.8059 51.3677 57.7018 50.8741 57.7018 50.3082C57.7018 49.7495 57.8059 49.2571 58.0143 48.831C58.225 48.4048 58.5185 48.0722 58.8949 47.8331C59.2737 47.594 59.7164 47.4744 60.2231 47.4744C60.5308 47.4744 60.8291 47.5253 61.118 47.6271C61.4068 47.7289 61.666 47.8887 61.8957 48.1065C62.1253 48.3243 62.3064 48.6072 62.439 48.9553C62.5716 49.3009 62.6378 49.7211 62.6378 50.2159V50.5923H58.3019V49.7969H61.5974C61.5974 49.5175 61.5405 49.2701 61.4269 49.0547C61.3133 48.8369 61.1535 48.6652 60.9475 48.5398C60.7439 48.4143 60.5048 48.3516 60.2302 48.3516C59.9319 48.3516 59.6715 48.425 59.4489 48.5717C59.2288 48.7161 59.0583 48.9055 58.9376 49.1399C58.8192 49.3719 58.76 49.6241 58.76 49.8963V50.5178C58.76 50.8823 58.8239 51.1925 58.9518 51.4482C59.082 51.7038 59.2631 51.8991 59.4951 52.0341C59.7271 52.1667 59.9982 52.233 60.3083 52.233C60.5095 52.233 60.693 52.2045 60.8587 52.1477C61.0244 52.0885 61.1677 52.0009 61.2884 51.8849C61.4092 51.7689 61.5015 51.6257 61.5654 51.4553L62.5704 51.6364C62.4899 51.9323 62.3455 52.1915 62.1371 52.4141C61.9312 52.6342 61.6719 52.8059 61.3594 52.929C61.0493 53.0497 60.6954 53.1101 60.2976 53.1101ZM67.9033 48.8771L66.9409 49.0476C66.9007 48.9245 66.8368 48.8073 66.7492 48.696C66.6639 48.5848 66.5479 48.4936 66.4012 48.4226C66.2544 48.3516 66.0709 48.3161 65.8507 48.3161C65.5501 48.3161 65.2991 48.3835 65.0979 48.5185C64.8967 48.651 64.796 48.8227 64.796 49.0334C64.796 49.2157 64.8635 49.3625 64.9985 49.4737C65.1334 49.585 65.3512 49.6761 65.6519 49.7472L66.5184 49.946C67.0202 50.062 67.3943 50.2408 67.6405 50.4822C67.8867 50.7237 68.0098 51.0374 68.0098 51.4233C68.0098 51.75 67.9151 52.0412 67.7257 52.2969C67.5387 52.5502 67.2771 52.7491 66.9409 52.8935C66.6071 53.0379 66.2201 53.1101 65.7797 53.1101C65.1689 53.1101 64.6706 52.9799 64.2847 52.7195C63.8988 52.4567 63.6621 52.0838 63.5745 51.6009L64.6007 51.4446C64.6647 51.7121 64.796 51.9145 64.9949 52.0518C65.1938 52.1868 65.453 52.2543 65.7726 52.2543C66.1206 52.2543 66.3988 52.1821 66.6071 52.0376C66.8155 51.8909 66.9196 51.7121 66.9196 51.5014C66.9196 51.331 66.8557 51.1877 66.7279 51.0717C66.6024 50.9557 66.4094 50.8681 66.149 50.8089L65.2257 50.6065C64.7167 50.4905 64.3403 50.3059 64.0965 50.0526C63.855 49.7992 63.7343 49.4785 63.7343 49.0902C63.7343 48.7682 63.8242 48.4865 64.0041 48.245C64.1841 48.0036 64.4327 47.8153 64.7499 47.6804C65.0671 47.5431 65.4305 47.4744 65.8401 47.4744C66.4296 47.4744 66.8936 47.6023 67.2321 47.858C67.5707 48.1113 67.7944 48.451 67.9033 48.8771Z" fill="white" fill-opacity="0.4"/>
</svg>
